<svg width="38" height="38" viewBox="0 0 38 38" fill="none" xmlns="http://www.w3.org/2000/svg">
<path d="M0 19C0 8.50659 8.50659 0 19 0C29.4934 0 38 8.50659 38 19C38 29.4934 29.4934 38 19 38C8.50659 38 0 29.4934 0 19Z" fill="white"/>
<path fill-rule="evenodd" clip-rule="evenodd" d="M23.1696 7.60001C23.3686 8.95108 22.8186 10.2747 22.0932 11.2112C21.317 12.2156 19.9792 12.9925 18.683 12.952C18.4464 11.6585 19.0523 10.3257 19.7894 9.42978C20.5981 8.441 21.984 7.6824 23.1696 7.60001ZM27.0634 26.6171C27.7316 25.593 27.9813 25.0764 28.5 23.9202C24.7271 22.4854 24.1226 17.1216 27.8565 15.063C26.7176 13.6347 25.1172 12.8068 23.6065 12.8068C22.518 12.8068 21.7721 13.0909 21.0941 13.3491C20.5291 13.5643 20.0111 13.7616 19.3812 13.7616C18.7004 13.7616 18.0976 13.5455 17.4664 13.3191C16.7727 13.0704 16.0448 12.8094 15.1416 12.8094C13.4463 12.8094 11.6418 13.8453 10.4977 15.6162C8.88948 18.1104 9.1638 22.7993 11.7718 26.7937C12.7039 28.2232 13.9494 29.8294 15.5784 29.8437C16.2544 29.8505 16.7042 29.6487 17.1909 29.4304C17.748 29.1805 18.3536 28.9089 19.402 28.9034C20.4566 28.897 21.0526 29.1719 21.6023 29.4255C22.0766 29.6442 22.5164 29.8471 23.1865 29.8398C24.8169 29.8267 26.1312 28.0467 27.0634 26.6171Z" fill="#0B0B0A"/>
</svg>
