<svg width="24" height="24" viewBox="0 0 24 24" fill="none" xmlns="http://www.w3.org/2000/svg">
<path fill-rule="evenodd" clip-rule="evenodd" d="M2 6C2 5.20435 2.31607 4.44129 2.87868 3.87868C3.44129 3.31607 4.20435 3 5 3H19C19.7956 3 20.5587 3.31607 21.1213 3.87868C21.6839 4.44129 22 5.20435 22 6V8.5C22 8.76522 21.8946 9.01957 21.7071 9.20711C21.5196 9.39464 21.2652 9.5 21 9.5C20.7348 9.5 20.4804 9.39464 20.2929 9.20711C20.1054 9.01957 20 8.76522 20 8.5V6C20 5.73478 19.8946 5.48043 19.7071 5.29289C19.5196 5.10536 19.2652 5 19 5H5C4.73478 5 4.48043 5.10536 4.29289 5.29289C4.10536 5.48043 4 5.73478 4 6V11C4 11.2652 4.10536 11.5196 4.29289 11.7071C4.48043 11.8946 4.73478 12 5 12H10.875C11.1402 12 11.3946 12.1054 11.5821 12.2929C11.7696 12.4804 11.875 12.7348 11.875 13C11.875 13.2652 11.7696 13.5196 11.5821 13.7071C11.3946 13.8946 11.1402 14 10.875 14H5C4.20435 14 3.44129 13.6839 2.87868 13.1213C2.31607 12.5587 2 11.7956 2 11V6ZM14 12C14 11.2044 14.3161 10.4413 14.8787 9.87868C15.4413 9.31607 16.2044 9 17 9C17.7956 9 18.5587 9.31607 19.1213 9.87868C19.6839 10.4413 20 11.2044 20 12V13C20.5304 13 21.0391 13.2107 21.4142 13.5858C21.7893 13.9609 22 14.4696 22 15V19C22 19.5304 21.7893 20.0391 21.4142 20.4142C21.0391 20.7893 20.5304 21 20 21H14C13.4696 21 12.9609 20.7893 12.5858 20.4142C12.2107 20.0391 12 19.5304 12 19V15C12 14.4696 12.2107 13.9609 12.5858 13.5858C12.9609 13.2107 13.4696 13 14 13V12ZM14 15V19H20V15H14ZM18 13H16V12C16 11.7348 16.1054 11.4804 16.2929 11.2929C16.4804 11.1054 16.7348 11 17 11C17.2652 11 17.5196 11.1054 17.7071 11.2929C17.8946 11.4804 18 11.7348 18 12V13Z" fill="#7D7D7D"/>
<path d="M9 8.5C9 8.89782 8.84196 9.27936 8.56066 9.56066C8.27936 9.84196 7.89782 10 7.5 10C7.10218 10 6.72064 9.84196 6.43934 9.56066C6.15804 9.27936 6 8.89782 6 8.5C6 8.10218 6.15804 7.72064 6.43934 7.43934C6.72064 7.15804 7.10218 7 7.5 7C7.89782 7 8.27936 7.15804 8.56066 7.43934C8.84196 7.72064 9 8.10218 9 8.5Z" fill="#7D7D7D"/>
<path d="M13.5 8.5C13.5 8.89782 13.342 9.27936 13.0607 9.56066C12.7794 9.84196 12.3978 10 12 10C11.6022 10 11.2206 9.84196 10.9393 9.56066C10.658 9.27936 10.5 8.89782 10.5 8.5C10.5 8.10218 10.658 7.72064 10.9393 7.43934C11.2206 7.15804 11.6022 7 12 7C12.3978 7 12.7794 7.15804 13.0607 7.43934C13.342 7.72064 13.5 8.10218 13.5 8.5Z" fill="#7D7D7D"/>
</svg>
