<svg width="24" height="24" viewBox="0 0 24 24" fill="none" xmlns="http://www.w3.org/2000/svg">
<path fill-rule="evenodd" clip-rule="evenodd" d="M20.8 6.4C20.8788 6.50506 20.9361 6.62461 20.9687 6.75182C21.0013 6.87904 21.0085 7.01142 20.99 7.14143C20.9714 7.27143 20.9274 7.3965 20.8605 7.5095C20.7936 7.6225 20.7051 7.72121 20.6 7.8L14.4 12.45C13.7076 12.9693 12.8655 13.25 12 13.25C11.1345 13.25 10.2924 12.9693 9.6 12.45L3.4 7.8C3.18783 7.64087 3.04756 7.40398 3.01005 7.14143C2.97255 6.87887 3.04087 6.61218 3.2 6.4C3.35913 6.18783 3.59603 6.04756 3.85858 6.01005C4.12113 5.97255 4.38783 6.04087 4.6 6.2L10.8 10.85C11.1462 11.1096 11.5673 11.25 12 11.25C12.4327 11.25 12.8538 11.1096 13.2 10.85L19.4 6.2C19.6122 6.04087 19.8789 5.97255 20.1414 6.01005C20.404 6.04756 20.6409 6.18783 20.8 6.4Z" fill="#7D7D7D"/>
<path fill-rule="evenodd" clip-rule="evenodd" d="M2 7C2 6.20435 2.31607 5.44129 2.87868 4.87868C3.44129 4.31607 4.20435 4 5 4H19C19.7956 4 20.5587 4.31607 21.1213 4.87868C21.6839 5.44129 22 6.20435 22 7V17C22 17.7956 21.6839 18.5587 21.1213 19.1213C20.5587 19.6839 19.7956 20 19 20H5C4.20435 20 3.44129 19.6839 2.87868 19.1213C2.31607 18.5587 2 17.7956 2 17V7ZM5 6C4.73478 6 4.48043 6.10536 4.29289 6.29289C4.10536 6.48043 4 6.73478 4 7V17C4 17.2652 4.10536 17.5196 4.29289 17.7071C4.48043 17.8946 4.73478 18 5 18H19C19.2652 18 19.5196 17.8946 19.7071 17.7071C19.8946 17.5196 20 17.2652 20 17V7C20 6.73478 19.8946 6.48043 19.7071 6.29289C19.5196 6.10536 19.2652 6 19 6H5Z" fill="#7D7D7D"/>
</svg>
