<svg width="38" height="38" viewBox="0 0 38 38" fill="none" xmlns="http://www.w3.org/2000/svg">
<path d="M0 19C0 8.50659 8.50659 0 19 0C29.4934 0 38 8.50659 38 19C38 29.4934 29.4934 38 19 38C8.50659 38 0 29.4934 0 19Z" fill="white"/>
<path d="M18.9996 13.9502C20.5457 13.9502 21.5886 14.618 22.1832 15.1761L24.5068 12.9073C23.0797 11.5808 21.2226 10.7667 18.9996 10.7667C15.7795 10.7667 12.9985 12.6146 11.6445 15.3041L14.3066 17.3716C14.9745 15.3865 16.8224 13.9502 18.9996 13.9502Z" fill="#EA4335"/>
<path d="M26.904 19.183C26.904 18.506 26.8491 18.012 26.7302 17.4997H19V20.5552H23.5375C23.446 21.3145 22.952 22.458 21.8542 23.2264L24.4523 25.239C26.0075 23.8028 26.904 21.6895 26.904 19.183Z" fill="#4285F4"/>
<path d="M14.3161 20.6284C14.1423 20.1161 14.0416 19.5672 14.0416 19C14.0416 18.4328 14.1423 17.8839 14.3069 17.3716L11.6448 15.3041C11.0868 16.4202 10.7666 17.6735 10.7666 19C10.7666 20.3265 11.0868 21.5798 11.6448 22.6958L14.3161 20.6284Z" fill="#FBBC05"/>
<path d="M19.0003 27.2333C21.2233 27.2333 23.0895 26.5015 24.4526 25.239L21.8545 23.2264C21.1592 23.7113 20.2261 24.0498 19.0003 24.0498C16.823 24.0498 14.9751 22.6135 14.3164 20.6284L11.6543 22.6958C13.0082 25.3854 15.7801 27.2333 19.0003 27.2333Z" fill="#34A853"/>
</svg>
