<svg width="30" height="29" viewBox="0 0 30 29" fill="none" xmlns="http://www.w3.org/2000/svg">
<path d="M0.636475 14.2727C0.636475 6.39012 7.02659 0 14.9092 0C22.7918 0 29.1819 6.39012 29.1819 14.2727C29.1819 22.1553 22.7918 28.5455 14.9092 28.5455C7.02659 28.5455 0.636475 22.1553 0.636475 14.2727Z" fill="#55ACEE"/>
<path d="M14.4818 11.601L14.5118 12.0949L14.0126 12.0344C12.1956 11.8026 10.6083 11.0165 9.26049 9.69612L8.60158 9.04099L8.43186 9.52478C8.07245 10.6032 8.30207 11.7421 9.05083 12.5081C9.45017 12.9315 9.36032 12.9919 8.67146 12.74C8.43186 12.6593 8.22221 12.5989 8.20224 12.6291C8.13235 12.6996 8.37196 13.6168 8.56164 13.9797C8.82121 14.4836 9.35034 14.9775 9.92938 15.2698L10.4186 15.5016L9.83953 15.5117C9.28045 15.5117 9.26049 15.5218 9.32039 15.7334C9.52006 16.3885 10.3088 17.084 11.1873 17.3864L11.8063 17.598L11.2672 17.9205C10.4685 18.3842 9.53004 18.6462 8.59159 18.6664C8.14234 18.6765 7.77295 18.7168 7.77295 18.747C7.77295 18.8478 8.99093 19.4122 9.69976 19.634C11.8262 20.2891 14.3521 20.0069 16.2489 18.8881C17.5967 18.0919 18.9445 16.5095 19.5734 14.9775C19.9129 14.1611 20.2523 12.6694 20.2523 11.9538C20.2523 11.4902 20.2822 11.4297 20.8413 10.8754C21.1708 10.5528 21.4803 10.2001 21.5402 10.0993C21.64 9.90778 21.63 9.90778 21.1209 10.0791C20.2723 10.3815 20.1525 10.3412 20.5718 9.88762C20.8813 9.5651 21.2506 8.98052 21.2506 8.80918C21.2506 8.77894 21.1009 8.82933 20.9312 8.92004C20.7515 9.02083 20.3521 9.17202 20.0526 9.26273L19.5135 9.43407L19.0243 9.10146C18.7548 8.92004 18.3754 8.71846 18.1757 8.65799C17.6666 8.51689 16.8879 8.53704 16.4286 8.69831C15.1807 9.15186 14.392 10.321 14.4818 11.601Z" fill="white"/>
</svg>
