<svg width="24" height="24" viewBox="0 0 24 24" fill="none" xmlns="http://www.w3.org/2000/svg">
<path fill-rule="evenodd" clip-rule="evenodd" d="M12 4C11.606 4 11.2159 4.0776 10.8519 4.22836C10.488 4.37913 10.1573 4.6001 9.87868 4.87868C9.6001 5.15726 9.37913 5.48797 9.22836 5.85195C9.0776 6.21593 9 6.60603 9 7C9 7.39397 9.0776 7.78407 9.22836 8.14805C9.37913 8.51203 9.6001 8.84274 9.87868 9.12132C10.1573 9.3999 10.488 9.62087 10.8519 9.77164C11.2159 9.9224 11.606 10 12 10C12.7956 10 13.5587 9.68393 14.1213 9.12132C14.6839 8.55871 15 7.79565 15 7C15 6.20435 14.6839 5.44129 14.1213 4.87868C13.5587 4.31607 12.7956 4 12 4ZM7 7C7 5.67392 7.52678 4.40215 8.46447 3.46447C9.40215 2.52678 10.6739 2 12 2C13.3261 2 14.5979 2.52678 15.5355 3.46447C16.4732 4.40215 17 5.67392 17 7C17 8.32608 16.4732 9.59785 15.5355 10.5355C14.5979 11.4732 13.3261 12 12 12C10.6739 12 9.40215 11.4732 8.46447 10.5355C7.52678 9.59785 7 8.32608 7 7ZM10 15C8.93913 15 7.92172 15.4214 7.17157 16.1716C6.42143 16.9217 6 17.9391 6 19V20C6 20.2652 5.89464 20.5196 5.70711 20.7071C5.51957 20.8946 5.26522 21 5 21C4.73478 21 4.48043 20.8946 4.29289 20.7071C4.10536 20.5196 4 20.2652 4 20V19C4 17.4087 4.63214 15.8826 5.75736 14.7574C6.88258 13.6321 8.4087 13 10 13H14C15.5913 13 17.1174 13.6321 18.2426 14.7574C19.3679 15.8826 20 17.4087 20 19V20C20 20.2652 19.8946 20.5196 19.7071 20.7071C19.5196 20.8946 19.2652 21 19 21C18.7348 21 18.4804 20.8946 18.2929 20.7071C18.1054 20.5196 18 20.2652 18 20V19C18 17.9391 17.5786 16.9217 16.8284 16.1716C16.0783 15.4214 15.0609 15 14 15H10Z" fill="#7D7D7D"/>
</svg>
