<svg width="82" height="82" fill="none" xmlns="http://www.w3.org/2000/svg">
<rect width="82" height="82" rx="41" fill="#FF4158" fill-opacity=".16"/>
<path d="M27.511 39.008a1.59 1.59 0 0 0 .835-2.078c-3.954-9.39 2.983-19.803 13.051-19.803 10.157 0 16.972 10.49 13.051 19.805a1.59 1.59 0 0 0 .836 2.076 1.571 1.571 0 0 0 2.063-.842c4.808-11.426-3.57-24.208-15.95-24.208-12.348 0-20.771 12.75-15.95 24.21a1.574 1.574 0 0 0 2.064.84Z" fill="#FF395D"/>
<path d="M49.484 36.543a1.57 1.57 0 0 0 2.063-.842c3.066-7.284-2.283-15.405-10.15-15.405-7.878 0-13.211 8.131-10.149 15.407a1.573 1.573 0 0 0 2.064.84 1.591 1.591 0 0 0 .835-2.078c-2.148-5.103 1.523-11 7.25-11 5.632 0 9.433 5.815 7.25 11.001a1.59 1.59 0 0 0 .837 2.077Z" fill="#FF395D"/>
<path d="M22.51 68.043h37.775c.87 0 1.574-.71 1.574-1.585 0-.876-.705-1.585-1.574-1.585H55.1l-10.517-30a4.74 4.74 0 0 0 1.536-3.486c0-2.62-2.118-4.753-4.722-4.753-2.603 0-4.721 2.132-4.721 4.753a4.74 4.74 0 0 0 1.536 3.486l-10.517 30H22.51c-.87 0-1.574.71-1.574 1.585 0 .876.704 1.585 1.574 1.585Zm27.66-7.777-6.547-6.59 3.114-3.135 3.434 9.725Zm-9.055-24.154c.096.006.186.029.282.029.097 0 .187-.023.282-.029l3.89 11.123-4.172 4.2-4.172-4.2 3.89-11.123Zm-5.057 14.43 3.113 3.134-6.547 6.59 3.434-9.725Zm5.34 5.375 8.791 8.956H32.605l8.792-8.956Z" fill="#FF395D"/>
</svg>