<svg width="88" height="86" viewBox="0 0 88 86" fill="none" xmlns="http://www.w3.org/2000/svg">
<path d="M79.7906 35.3051C78.94 31.6645 79.3621 27.6674 79.1408 23.7769C79.0372 21.8778 78.8849 19.785 77.9652 17.9234C77.4047 16.6916 76.3896 15.7297 75.1366 15.2427C73.8835 14.7557 72.4916 14.7822 71.2576 15.3166C69.5038 16.0269 67.9675 17.9344 67.1002 19.1987C66.0529 20.7551 65.086 22.3651 64.2034 24.0223C62.4976 27.1528 60.9536 30.2258 59.3354 33.0928C58.8134 33.9633 58.3005 34.8711 57.7568 35.7222C56.9675 24.3529 60.763 3.33446 47.6094 0.131004C44.5655 -0.55605 42.2143 1.56581 40.9454 4.00924C39.6292 6.58863 38.5367 9.27823 37.6802 12.0479C35.4965 18.8215 33.773 25.7376 32.5217 32.748C31.2425 39.8994 30.3707 46.3315 28.23 60.1656C21.1943 57.0622 12.4086 54.5103 5.55206 61.0748C-6.2391 72.364 2.02654 87.7562 18.3717 85.8365C32.0382 84.2319 36.7809 65.6569 36.7809 65.6569H36.7771C38.5967 56.7316 39.9444 43.3838 41.5978 33.4841C42.7056 26.8551 44.4913 21.3754 46.5784 15.0344C46.8528 14.2169 47.1425 13.3555 47.4502 12.5064C49.314 19.3737 48.0674 34.4301 49.2935 39.6237C50.228 46.2947 56.2058 49.7616 61.574 44.7346C63.8663 42.4746 65.2837 39.7942 66.6998 37.1951C68.6954 33.4719 70.2816 29.6743 72.1857 26.1086C73.0127 32.1481 74.0406 40.6898 80.5531 39.7083C84.4547 38.5169 86.4771 34.4133 88 31.031C86.6933 31.9421 80.8856 36.5481 79.7887 35.3051" fill="#727272"/>
</svg>
