<svg width="30" height="30" viewBox="0 0 30 30" fill="none" xmlns="http://www.w3.org/2000/svg">
<path d="M0.818115 14.8674C0.818115 22.75 7.20823 29.1401 15.0908 29.1401C22.9734 29.1401 29.3636 22.75 29.3636 14.8674C29.3636 6.98481 22.9734 0.594696 15.0908 0.594696C7.20823 0.594696 0.818115 6.98481 0.818115 14.8674Z" fill="#F00073"/>
<path d="M15.091 8.80151C17.0535 8.80151 17.3211 8.80151 18.1239 8.80151C18.8376 8.80151 19.1944 8.97992 19.462 9.06912C19.8188 9.24753 20.0864 9.33674 20.3541 9.60435C20.6217 9.87196 20.8001 10.1396 20.8893 10.4964C20.9785 10.764 21.0677 11.1208 21.1569 11.8345C21.1569 12.6373 21.1569 12.8157 21.1569 14.8674C21.1569 16.9191 21.1569 17.0975 21.1569 17.9004C21.1569 18.614 20.9785 18.9708 20.8893 19.2384C20.7109 19.5953 20.6217 19.8629 20.3541 20.1305C20.0864 20.3981 19.8188 20.5765 19.462 20.6657C19.1944 20.7549 18.8376 20.8441 18.1239 20.9333C17.3211 20.9333 17.1427 20.9333 15.091 20.9333C13.0393 20.9333 12.8609 20.9333 12.058 20.9333C11.3444 20.9333 10.9876 20.7549 10.72 20.6657C10.3631 20.4873 10.0955 20.3981 9.82792 20.1305C9.56031 19.8629 9.3819 19.5953 9.29269 19.2384C9.20349 18.9708 9.11428 18.614 9.02508 17.9004C9.02508 17.0975 9.02508 16.9191 9.02508 14.8674C9.02508 12.8157 9.02508 12.6373 9.02508 11.8345C9.02508 11.1208 9.20349 10.764 9.29269 10.4964C9.4711 10.1396 9.56031 9.87196 9.82792 9.60435C10.0955 9.33674 10.3631 9.15833 10.72 9.06912C10.9876 8.97992 11.3444 8.89071 12.058 8.80151C12.8609 8.80151 13.1285 8.80151 15.091 8.80151ZM15.091 7.46344C13.0393 7.46344 12.8609 7.46344 12.058 7.46344C11.2552 7.46344 10.72 7.64185 10.2739 7.82026C9.82792 7.99867 9.3819 8.26628 8.93588 8.7123C8.48985 9.15833 8.31144 9.51515 8.04383 10.0504C7.86542 10.4964 7.77622 11.0316 7.68701 11.8345C7.68701 12.6373 7.68701 12.9049 7.68701 14.8674C7.68701 16.9191 7.68701 17.0975 7.68701 17.9004C7.68701 18.7032 7.86542 19.2384 8.04383 19.6845C8.22224 20.1305 8.48985 20.5765 8.93588 21.0225C9.3819 21.4686 9.73872 21.647 10.2739 21.9146C10.72 22.093 11.2552 22.1822 12.058 22.2714C12.8609 22.2714 13.1285 22.2714 15.091 22.2714C17.0535 22.2714 17.3211 22.2714 18.1239 22.2714C18.9268 22.2714 19.462 22.093 19.908 21.9146C20.3541 21.7362 20.8001 21.4686 21.2461 21.0225C21.6921 20.5765 21.8705 20.2197 22.1381 19.6845C22.3166 19.2384 22.4058 18.7032 22.495 17.9004C22.495 17.0975 22.495 16.8299 22.495 14.8674C22.495 12.9049 22.495 12.6373 22.495 11.8345C22.495 11.0316 22.3166 10.4964 22.1381 10.0504C21.9597 9.60435 21.6921 9.15833 21.2461 8.7123C20.8001 8.26628 20.4433 8.08787 19.908 7.82026C19.462 7.64185 18.9268 7.55264 18.1239 7.46344C17.3211 7.46344 17.1427 7.46344 15.091 7.46344Z" fill="white"/>
<path d="M15.091 11.0316C12.9501 11.0316 11.2552 12.7265 11.2552 14.8674C11.2552 17.0083 12.9501 18.7032 15.091 18.7032C17.2319 18.7032 18.9268 17.0083 18.9268 14.8674C18.9268 12.7265 17.2319 11.0316 15.091 11.0316ZM15.091 17.3651C13.7529 17.3651 12.5933 16.2947 12.5933 14.8674C12.5933 13.5293 13.6637 12.3697 15.091 12.3697C16.4291 12.3697 17.5887 13.4401 17.5887 14.8674C17.5887 16.2055 16.4291 17.3651 15.091 17.3651Z" fill="white"/>
<path d="M19.016 11.8345C19.5087 11.8345 19.908 11.4351 19.908 10.9424C19.908 10.4498 19.5087 10.0504 19.016 10.0504C18.5233 10.0504 18.1239 10.4498 18.1239 10.9424C18.1239 11.4351 18.5233 11.8345 19.016 11.8345Z" fill="white"/>
</svg>
