<svg width="29" height="29" viewBox="0 0 29 29" fill="none" xmlns="http://www.w3.org/2000/svg">
<path d="M14.7271 28.5455C22.6097 28.5455 28.9998 22.1553 28.9998 14.2727C28.9998 6.39012 22.6097 0 14.7271 0C6.84446 0 0.454346 6.39012 0.454346 14.2727C0.454346 22.1553 6.84446 28.5455 14.7271 28.5455Z" fill="#25D366"/>
<path fill-rule="evenodd" clip-rule="evenodd" d="M15.1975 22.2134H15.194C13.7736 22.2129 12.3779 21.8566 11.1382 21.1804L6.63916 22.3606L7.84319 17.9627C7.10049 16.6756 6.70968 15.2156 6.71032 13.7198C6.71218 9.04041 10.5194 5.23334 15.1974 5.23334C17.4678 5.23432 19.5987 6.11817 21.201 7.72239C22.8034 9.32653 23.6853 11.4588 23.6845 13.7265C23.6826 18.4048 19.8768 22.2115 15.1975 22.2134ZM11.3467 19.644L11.6043 19.7968C12.6874 20.4395 13.9289 20.7796 15.1947 20.7801H15.1975C19.0855 20.7801 22.25 17.6156 22.2515 13.726C22.2522 11.8411 21.5192 10.0689 20.1874 8.73549C18.8556 7.40213 17.0845 6.66746 15.2003 6.66681C11.3093 6.66681 8.14484 9.831 8.1433 13.7203C8.14275 15.0532 8.5157 16.3513 9.22182 17.4744L9.38954 17.7413L8.67693 20.3443L11.3467 19.644ZM19.1827 15.5537C19.3306 15.6252 19.4304 15.6735 19.4731 15.7447C19.5261 15.8331 19.5261 16.2577 19.3495 16.7531C19.1727 17.2485 18.3255 17.7006 17.918 17.7614C17.5527 17.816 17.0904 17.8388 16.5824 17.6774C16.2744 17.5797 15.8794 17.4492 15.3734 17.2307C13.3854 16.3723 12.0419 14.4454 11.788 14.0813C11.7702 14.0557 11.7578 14.0379 11.7508 14.0286L11.7491 14.0263C11.6369 13.8766 10.8849 12.8733 10.8849 11.8349C10.8849 10.8581 11.3647 10.3461 11.5856 10.1105C11.6007 10.0943 11.6147 10.0795 11.6271 10.0658C11.8215 9.85353 12.0512 9.80046 12.1926 9.80046C12.334 9.80046 12.4755 9.80176 12.599 9.80797C12.6143 9.80874 12.6302 9.80864 12.6465 9.80855C12.7701 9.80782 12.9242 9.80692 13.0762 10.172C13.1346 10.3125 13.2202 10.5208 13.3104 10.7405C13.4929 11.1847 13.6945 11.6755 13.73 11.7466C13.783 11.8527 13.8184 11.9765 13.7477 12.1181C13.7371 12.1393 13.7273 12.1594 13.7179 12.1785C13.6648 12.2869 13.6257 12.3666 13.5356 12.4718C13.5002 12.5132 13.4636 12.5578 13.427 12.6024C13.354 12.6913 13.281 12.7801 13.2175 12.8434C13.1114 12.9491 13.0008 13.0639 13.1245 13.2762C13.2483 13.4885 13.6738 14.1829 14.3043 14.7452C14.9819 15.3497 15.5709 15.6051 15.8695 15.7346C15.9278 15.7599 15.975 15.7804 16.0096 15.7977C16.2216 15.9039 16.3453 15.8862 16.469 15.7447C16.5927 15.6032 16.9991 15.1254 17.1405 14.9132C17.2818 14.7009 17.4233 14.7363 17.6176 14.807C17.812 14.8779 18.8546 15.3908 19.0667 15.497C19.1081 15.5177 19.1468 15.5364 19.1827 15.5537Z" fill="#FDFDFD"/>
</svg>
