<?xml version="1.0" encoding="UTF-8" standalone="no"?><svg xmlns="http://www.w3.org/2000/svg" width="704.9" height="195.8"><path fill="#fff" d="M55.7 13.1h444.7v171H55.7z"/><path d="M7.8 194.1c-1.3-.8-3.6-2.9-5-4.6l-2.5-3-.2-87C-.1 35.6 0 11.5.9 9.5a20 20 0 015.3-6l4-3.2 341-.3C690.7 0 692.2 0 696.3 2c2.7 1.3 5 3.4 6.4 6l2.2 4v86c0 47.2-.4 86.7-.8 87.7-1 2.8-4.2 6.6-7 8.5-2.6 1.7-19.5 1.8-344.8 1.7-307-.1-342.2-.3-344.5-1.7zm372.4-29.5c1.4-1.2 6.8-10.1 12.2-19.7a6216 6216 0 0116.4-29.5 3848.5 3848.5 0 0033-59c5.1-9.2 6.2-13.8 3.8-16.7C443 36.7 435 33 431 33c-3.4 0-4.5.5-6.5 3.2-2.3 3-8 13-15 25.8-3.2 5.8-19.5 35-33.2 59-20.6 36.3-20.5 36-11.5 42.2 6.7 4.5 11.6 5 15.4 1.5zm-191.8-3.3c6.5-.7 15.7-5 21.1-10 5-4.7 10.6-15.4 13-25 2.5-10 2.5-43 0-52.8a68 68 0 00-10.4-22.7 45.8 45.8 0 00-18.2-11.4 69.6 69.6 0 00-32 0c-15.3 5-23.7 14.4-28.5 32-2.6 9.2-3.3 38.3-1.2 50.5 3 17 10.4 29.2 21.1 34.7 11.3 5.8 16.9 6.5 35.1 4.7zm-18.8-28.7c-5-2-6.3-8.8-6.3-32.7 0-24.9 1.3-30.8 6.8-32.8a24.3 24.3 0 0115.6.2c4.5 2.3 7.1 14.4 7.1 32.6 0 18.2-2.6 30.2-7 32.5a27.2 27.2 0 01-16.2.2zM288 161.4c2.5-.3 7.5-1.8 11-3.3 17.6-8 25.7-26.5 25.7-58.4 0-28.6-6.1-45.4-20-55a43.5 43.5 0 00-27.5-7.2c-19.4.2-32.8 7.7-39.8 22.5-5.3 11.4-6.1 16.6-6.1 39.9 0 23.7.8 29 6.6 40.4a38.4 38.4 0 0031.8 21.5c6.4.8 8.4.7 18.3-.4zm-18.2-28.8c-1.5-.8-3.3-3.2-4.5-6.2-1.8-4.5-2-7.4-2-26.5 0-19.2.2-22 2-26.5 1.2-3 3-5.5 4.5-6.2 2.8-1.5 15-1.8 15-.4 0 .4.8 1 1.8 1.3 1.3.4 2.4 2.5 3.7 7.4 2.7 9.8 2.8 38.8 0 48.6-1.5 5.6-2.3 7-4.8 8.2-3.7 1.9-12.3 2-15.7.3zM63.6 158c.4-3.2.3-3.2-4.2-3.2-2.5 0-4.6-.4-4.5-.8 0-.4 2-2.3 4.5-4.2 3.6-2.9 4.4-4.1 4.4-6.8 0-4-2.5-4.4-6-.7-2.3 2.4-5 3.3-5 1.6 0-1.7-6-3.4-9.6-2.8-6.2 1-7.4 2.9-7.4 11.7 0 4.2.3 8 .7 8.3.4.4 6.6.6 13.8.4l13-.2zM41.4 154c-.4-.5-.3-2 0-3.5.5-2 1.3-2.5 3.5-2.5 2.7 0 3 .3 3 3.5s-.3 3.5-3 3.5c-1.6 0-3.2-.5-3.5-1zm421 4.4c10-6.2 14.1-17.4 13-35.4-.5-10.5-2.3-16.7-6.2-21.8-11.2-14.6-39.7-13-47.9 2.8-6 11.7-6 35.1 0 45.5 5.6 9.5 12 12.6 26.1 12.2 9.3-.2 10.6-.5 15-3.3zm-19.7-18c-1.7-2.2-2.5-21.8-1-25.7.9-2.3 1.7-2.7 4.6-2.7 3 0 3.6.4 4.3 2.7 1.3 5 .9 23.8-.6 25.6-1.8 2.1-5.5 2.1-7.3 0zm-324.4 17.3c1.5-1.2 3-4 3.6-6.2 1.1-5 1.2-96.4 0-102.4-1.5-7.6-3.4-8.6-16.2-8.6-10.8 0-11.1 0-13.4 2.7a16.2 16.2 0 00-3 7c-.3 2.3-.4 26.3-.3 53.3.4 60.8-1 56.1 17 56.4 8.7 0 10-.2 12.3-2.2zm392.5.8a9.6 9.6 0 003.7-3.2c.4-1 1-13.9 1.3-28.6l.5-26.8 8 11.3c4.3 6.2 11 15.5 14.9 20.8 21.5 29.2 20 28 32.7 28 9.3 0 12-1.3 14-6.7a1538 1538 0 000-107.7c-1.7-4.4-5.2-5.8-14.3-5.8-4.5 0-9.5.4-11 1-5 2-5.2 3.7-5.8 32.6l-.5 27-14-19.5c-19.7-27.6-28.2-38.7-30.4-40a54 54 0 00-20.6 0c-5.4 2.2-5.5 3.3-5.2 60.7l.2 52.5 3.3 3c3 2.7 3.8 2.9 11.8 2.9 5.5 0 9.5-.5 11.4-1.5zm154 0c3.3-1.7 5-6 5-12.5s-1.5-10.3-4.9-12.3c-2.4-1.4-5.7-1.7-19.5-1.7h-16.6V90.3c0-46 0-47-6.2-49.5-4.7-2-18.7-1.4-21.8.9-5 3.7-5 3.3-5 57.5 0 54.5.1 55.5 5.1 59 2 1.5 6.2 1.7 31.7 1.7 23.8 0 29.9-.3 32.2-1.5zm-601-24.5c0-2.4-.5-3.1-2.5-3.6-2.2-.6-2.5-1.1-2.5-5.9 0-4.6.3-5.3 2.5-6.3 1.9-.9 2.5-2 2.5-4.2 0-1.8-.5-3-1.2-3s-6.9 2.2-13.8 4.9c-11.9 4.5-12.5 4.9-12.8 7.7-.3 3.7.4 4.3 9.8 7.8l11 4.1c5.7 2.2 7 1.9 7-1.5zm-15.5-8.5l-3-1.3 2.8-1.1c4.4-1.7 5.7-1.4 5.7 1.4s-1 3-5.5 1zm325-19.4c5.8-2.6 9.1-6 12.3-12.7 2.6-5.6 2.7-6.8 2.7-19.4 0-14.8-1-19.4-5.3-26-3.7-5.5-9.3-8.7-17.4-10-17.2-2.7-29.5 4.3-33.5 19-1.6 6.1-1.6 25.3.1 31.7a25.5 25.5 0 0020.1 19.4c5.9 1 16.4 0 21-2zM356 86c-1.3-2.5-1.4-22.2 0-25.6 1.1-3.2 6.3-3.6 7.9-.6a80.4 80.4 0 01-.2 26.9c-1.9 1.9-6.6 1.4-7.7-.8zM63.3 98.5c0-7.7-.2-9-2.2-11s-3.3-2.2-11.4-2.2c-8.7 0-9.1 0-11.5 2.8-2 2.4-2.4 3.8-2.4 10.6 0 4.2.3 8 .7 8.4.4.4 6.6.6 13.8.4l13-.2zm-21.6 1.5c-.3-2.5.5-6.8 1.5-7.5 1.9-1.2 12.1-.8 13.4.5.7.6 1.2 2.7 1.2 4.5v3.3h-8c-4.4 0-8-.4-8-.8zM63.1 79c.4 0 .7-1.4.7-3 0-1.7-.3-3-.7-3l-12.8-.3c-6.6-.2-12.5-.2-13.2 0-2 .7-1.6 6 .4 6.4.9.2 6.9.3 13.2.1l12.4-.2zM58.8 65c4.2-2 6-5.3 6-10.7 0-8.2-5-12.5-14.8-12.5-10.2 0-15.2 4.3-15.2 13.2 0 5.1 2.1 8.5 6.4 10.3 4.5 2 13.4 1.8 17.6-.3zm-16.2-6.3c-2.3-1.3-2.3-6.3 0-8.5 2-2.1 13.8-1.7 15.3.6 1.4 2.2 1.1 5.7-.6 7.4-1.9 1.8-11.9 2.1-14.7.5z" fill="#f58e1d"/><path d="M36.5 161.2a30 30 0 01-.7-8.3c0-8.8 1.2-10.7 7.4-11.7 3.6-.6 9.6 1.1 9.6 2.8 0 1.7 2.7.8 5-1.6 3.5-3.7 6-3.4 6 .7 0 2.7-.8 4-4.4 6.8-2.5 1.9-4.5 3.8-4.5 4.2 0 .4 2 .8 4.5.8 4.5 0 4.6 0 4.2 3.2l-.3 3.3-13 .2c-7.2.2-13.4 0-13.8-.4zm11.3-9.8c0-3.2-.2-3.5-2.9-3.5-2.2 0-3 .5-3.5 2.5-.8 3.4 0 4.5 3.5 4.5 2.7 0 3-.3 3-3.5zm439.8 5.6l-3.3-3-.2-52.5c-.3-57.4-.2-58.5 5.2-60.6a54 54 0 0120.6 0c2.2 1.2 10.7 12.3 30.5 39.9l14 19.4.4-26.9c.6-29 .9-30.6 5.8-32.6 1.5-.6 6.5-1 11-1 9.1 0 12.6 1.4 14.3 5.8a1538 1538 0 010 107.7c-2 5.4-4.7 6.7-14 6.7-12.7 0-11.2 1.2-32.7-28l-15-20.8-7.9-11.3-.5 26.8a275 275 0 01-1.3 28.6c-1.7 3.3-6.1 4.7-15.1 4.7-8 0-8.7-.2-11.8-3zm113.3 1.2c-5-3.5-5-4.5-5-59 0-54.2 0-53.8 5-57.5 3-2.3 17-2.9 21.7-1 6.1 2.6 6.2 3.5 6.2 49.6v41.6h16.6c18.5 0 21.5.8 23.4 6.3a29.9 29.9 0 010 15.5c-2.1 5.9-3.7 6.2-36.2 6.2-25.5 0-29.6-.2-31.7-1.7zM57 135.4l-11-4.1c-9.5-3.5-10.2-4-9.9-7.8.3-2.8.9-3.2 12.8-7.7a159 159 0 0113.8-4.9c.7 0 1.2 1.2 1.2 3 0 2.2-.6 3.3-2.5 4.2-2.2 1-2.5 1.7-2.5 6.3 0 4.8.3 5.3 2.5 5.9 2 .5 2.5 1.2 2.5 3.6 0 3.4-1.3 3.7-7 1.5zm-3-11c0-2.8-1.4-3.1-5.8-1.4l-2.8 1.1 3 1.3c4.4 2 5.5 1.8 5.5-1zm-17.4-17.2c-.4-.4-.7-4.2-.7-8.4 0-6.8.3-8.2 2.4-10.6 2.4-2.7 2.8-2.8 11.5-2.8 8.1 0 9.3.2 11.4 2.2 2 2 2.2 3.3 2.2 11v8.8l-13 .2c-7.2.2-13.4 0-13.8-.4zm21.3-9.6c0-1.8-.5-3.9-1.2-4.5-1.3-1.3-11.5-1.7-13.4-.5-1 .7-1.8 5-1.5 7.5 0 .4 3.7.8 8.1.8h8zM37.5 79c-2-.3-2.3-5.7-.4-6.3.7-.3 6.6-.3 13.2-.1l12.8.3c.4 0 .7 1.3.7 3 0 1.6-.3 3-.7 3l-12.4.2c-6.3.2-12.3.1-13.2 0zm3.7-13.6c-4.3-1.8-6.4-5.2-6.4-10.3 0-9 5-13.2 15.2-13.2 9.7 0 14.8 4.3 14.8 12.5 0 5.4-1.8 8.6-6 10.7a26.3 26.3 0 01-17.6.3zm16-7.1c1.8-1.7 2-5.2.7-7.4-1.5-2.3-13.2-2.7-15.4-.6-2.2 2.2-2.2 7.2 0 8.5 3 1.6 13 1.3 14.8-.5z" fill="#412d04"/></svg>