<svg width="78" height="39" viewBox="0 0 78 39" fill="none" xmlns="http://www.w3.org/2000/svg">
<path d="M25.4282 0.158773C21.4116 0.572861 16.6082 2.20851 13.8338 4.09261C12.0946 5.29346 10.666 6.76347 10.666 7.3639C10.666 8.95813 12.3431 9.37222 13.5853 8.08855C16.8566 4.69303 23.8754 2.56048 30.6457 2.89175C44.6626 3.6164 59.1971 12.2087 73.4624 28.2339C74.8496 29.7867 75.9262 30.8012 76.2575 30.8841C77.0235 31.0704 77.831 30.4079 77.9138 29.5176C77.9759 28.855 77.7275 28.5238 74.2699 24.7763C63.1309 12.6435 52.0748 5.0036 40.7495 1.67019C36.1117 0.303703 29.9211 -0.317427 25.4282 0.158773Z" fill="#674921"/>
<path d="M75.6573 5.97662C75.4709 6.12155 74.6014 7.13606 73.6904 8.21269C72.8001 9.28932 71.2887 11.0285 70.357 12.0844C69.4046 13.1403 68.5557 14.1963 68.4729 14.4654C68.2037 15.1901 68.4936 15.9354 69.1354 16.2667C69.6323 16.4944 69.8186 16.4944 70.2948 16.2667C70.8746 15.9768 72.738 13.9271 76.0507 9.99326C78.1004 7.57085 78.3903 6.80479 77.5828 6.08014C77.1273 5.66605 76.0921 5.62464 75.6573 5.97662Z" fill="#674921"/>
<path d="M3.87536 7.0119C3.17141 7.88148 2.98507 11.7946 3.52339 13.9065C4.37227 17.1156 7.10524 19.0618 9.48625 18.1716C10.1488 17.9231 11.2047 16.8258 11.7016 15.8941C12.095 15.1487 12.095 15.1487 12.1157 15.7284C12.1157 16.95 12.7782 19.1861 13.3994 20.0971C13.7514 20.6354 14.4346 21.2979 14.9936 21.6292C15.8011 22.1054 16.1738 22.1882 17.4988 22.1882C18.8239 22.1675 19.2173 22.0847 20.1697 21.5671C21.5362 20.8217 22.882 19.1861 23.5859 17.4262L24.0828 16.1839L29.6316 14.7139L35.2011 13.2439L35.3046 14.7967C35.3874 16.1425 35.4702 16.3703 35.8636 16.5152C36.6297 16.8051 36.9195 16.3289 37.2715 14.1756C37.6856 11.5255 37.6649 11.0492 37.168 10.5938C36.7539 10.2211 36.6711 10.2211 34.5178 10.573C29.0105 11.484 27.1885 11.7325 24.8903 11.9395C18.7204 12.5193 11.4946 10.7594 6.19425 7.38458C5.15903 6.74274 4.22734 6.57711 3.87536 7.0119Z" fill="#674921"/>
<path d="M1.90839 17.9645C1.72205 18.0887 1.16304 18.9376 0.707539 19.8486C0.0242945 21.215 -0.0999317 21.6084 0.0657033 21.9811C0.18993 22.2296 1.0181 23.3683 1.9291 24.4863C5.82152 29.3105 10.5835 33.0994 15.8838 35.646C20.1489 37.675 23.7101 38.586 28.2651 38.7931C38.3481 39.2278 48.0998 35.7702 57.6032 28.358C60.7709 25.8942 64.2907 22.7058 64.4149 22.1467C64.7255 20.9873 63.8766 20.0142 62.8 20.304C62.5308 20.3662 61.3921 21.2772 60.2533 22.2917C49.5077 31.9813 39.404 36.3292 28.5963 35.8944C24.0207 35.7081 21.2256 34.9627 16.7741 32.7474C13.8134 31.2774 11.391 29.621 8.61661 27.1572C6.96026 25.7079 3.79249 22.3538 3.3784 21.567C3.25418 21.3807 3.3577 20.9666 3.62686 20.449C4.18587 19.3309 4.16517 18.6891 3.50263 18.1715C2.9022 17.6953 2.46741 17.6332 1.90839 17.9645Z" fill="#674921"/>
</svg>
