<svg xmlns="http://www.w3.org/2000/svg" viewBox="0 0 96 96" width="96" height="96" preserveAspectRatio="xMidYMid meet" style="width: 100%; height: 100%; transform: translate3d(0px, 0px, 0px); content-visibility: visible;"><defs><clipPath id="__lottie_element_7"><rect width="96" height="96" x="0" y="0"></rect></clipPath></defs><g clip-path="url(#__lottie_element_7)"><g transform="matrix(1,0,0,1,0,0)" opacity="1" style="display: block;"><g opacity="1" transform="matrix(1,0,0,1,48,46)"><path fill="rgb(255,65,153)" fill-opacity="1" d=" M24,30 C21.788999557495117,30 20,28.211000442504883 20,26 C20,26 20,0.7393090128898621 20,0.7393090128898621 C20,-1.4696909189224243 21.788999557495117,-3.260690927505493 24,-3.260690927505493 C26.211000442504883,-3.260690927505493 28,-1.4696909189224243 28,0.7393090128898621 C28,0.7393090128898621 28,26 28,26 C28,28.211000442504883 26.211000442504883,30 24,30z M8,30 C5.789000034332275,30 4,28.211000442504883 4,26 C4,26 4,-20.145729064941406 4,-20.145729064941406 C4,-22.35472869873047 5.789000034332275,-24.145729064941406 8,-24.145729064941406 C10.211000442504883,-24.145729064941406 12,-22.35472869873047 12,-20.145729064941406 C12,-20.145729064941406 12,26 12,26 C12,28.211000442504883 10.211000442504883,30 8,30z M-8,30 C-10.208999633789062,30 -12,28.211000442504883 -12,26 C-12,26 -12,3.810840606689453 -12,3.810840606689453 C-12,1.601840615272522 -10.208999633789062,-0.18915939331054688 -8,-0.18915939331054688 C-5.790999889373779,-0.18915939331054688 -4,1.601840615272522 -4,3.810840606689453 C-4,3.810840606689453 -4,26 -4,26 C-4,28.211000442504883 -5.790999889373779,30 -8,30z M-24,30 C-26.208999633789062,30 -28,28.211000442504883 -28,26 C-28,26 -28,-8.330889701843262 -28,-8.330889701843262 C-28,-10.541889190673828 -26.208999633789062,-12.330889701843262 -24,-12.330889701843262 C-21.791000366210938,-12.330889701843262 -20,-10.541889190673828 -20,-8.330889701843262 C-20,-8.330889701843262 -20,26 -20,26 C-20,28.211000442504883 -21.791000366210938,30 -24,30z"></path></g></g></g></svg>