<?xml version="1.0" encoding="utf-8"?>
<!-- Generator: Adobe Illustrator 16.0.0, SVG Export Plug-In . SVG Version: 6.00 Build 0)  -->
<!DOCTYPE svg PUBLIC "-//W3C//DTD SVG 1.1//EN" "http://www.w3.org/Graphics/SVG/1.1/DTD/svg11.dtd">
<svg version="1.1" id="Layer_1" xmlns="http://www.w3.org/2000/svg" xmlns:xlink="http://www.w3.org/1999/xlink" x="0px" y="0px"
	 width="205.859px" height="66.629px" viewBox="0 0 205.859 66.629" enable-background="new 0 0 205.859 66.629"
	 xml:space="preserve">
<path fill="#FFFFFF" d="M34.703,10.358c-0.109,0.245-0.431,0.303-0.353,0.703c-0.247,0.084-0.4,0.233-0.408,0.523
	c-0.31,0.134-0.556,0.291-0.679,0.593c-0.206-0.014-0.328,0.032-0.303,0.231c-0.2-0.121-0.429,0.065-0.438,0.305H32.34
	c-0.051,0.167-0.276,0.173-0.326,0.355c-0.265-0.013-0.416,0.096-0.468,0.284c-0.327,0.037-0.65,0.103-0.769,0.354
	c-0.097,0-0.271-0.039-0.213,0.11c-0.199-0.091-0.451,0.18-0.617,0.276c-0.291-0.005-0.498-0.083-0.803-0.109
	c-0.451-0.432-1.051-0.742-1.523-1.174h-0.217v-0.097h-0.273c0.008-0.071-0.008-0.116-0.029-0.142
	c-0.389-0.195-0.591-0.549-1.047-0.672c-0.277-0.264-0.529-0.567-0.98-0.678c0.005-0.141-0.213-0.077-0.208-0.219
	c-0.496,0.059-0.555-0.277-0.986-0.277c0.006-0.064-0.013-0.103-0.024-0.135c-0.504-0.097-0.936-0.245-1.484-0.31
	c0.303-0.367,1.054-0.174,1.484-0.386c0.291,0.006,0.561,0,0.729-0.117c0.135-0.02,0.179,0.039,0.282,0.058
	c0.17-0.026,0.442-0.206,0.551-0.117c0.825-0.142,1.658,0.02,2.449-0.16c0.197-0.053,0.603-0.039,0.92-0.059
	c1.381-0.096,2.812,0.071,4.116,0.219c0.107-0.025,0.192-0.07,0.298-0.108c0.491,0.135,1.051,0.199,1.503,0.367
	c0.025,0.136,0,0.232-0.089,0.277C34.607,10.327,34.729,10.28,34.703,10.358 M31.947,22.97c-0.17-0.188-0.359-0.4-0.521-0.619
	c-0.315-0.246-0.393-0.709-0.768-0.91v-0.483c0.146-0.014,0.137-0.168,0.246-0.209c0.617,0.162,1.032,0.498,1.619,0.692
	c0.244,0.283,0.711,0.367,0.846,0.749c0.123,0,0.258,0.037,0.244,0.25C32.948,22.518,32.575,22.866,31.947,22.97 M24.275,22.603
	c-0.769-0.033-1.354,0.108-2.015,0.18c-0.098-0.108-0.176-0.237-0.159-0.444c0.29-0.207,0.555-0.433,0.954-0.529
	c0.265-0.271,0.671-0.387,1.22-0.367C24.332,21.994,24.293,22.021,24.275,22.603 M51.284,24.112
	c-0.562-0.175-0.877-0.549-1.445-0.696c-0.108-0.222-0.438-0.234-0.576-0.42c-0.855-0.298-1.551-0.729-2.418-1.008
	c0.031-0.083-0.096-0.025-0.073-0.115c-0.577-0.084-0.888-0.432-1.438-0.588c-0.504-0.412-1.22-0.638-1.837-0.941
	c-0.126-0.021-0.151-0.021-0.272,0c-0.23-0.258-0.62-0.367-1.047-0.445v-0.109c-0.379-0.194-0.851-0.285-1.267-0.466
	c-0.053-0.04-0.062-0.123-0.119-0.147c-0.177-0.104-0.478-0.192-0.697-0.277c-0.254-0.091-0.538-0.124-0.776-0.219
	c-0.02-0.014-0.005-0.078-0.025-0.092c-0.115-0.058-0.296-0.108-0.427-0.166c-0.325-0.125-0.72-0.207-1.038-0.336
	c0,0-0.021-0.07-0.046-0.076c-0.058-0.04-0.214-0.033-0.271-0.065c-0.046-0.026-0.02-0.091-0.063-0.104
	c-0.083-0.039-0.213-0.006-0.304-0.059c-0.09-0.043-0.122-0.16-0.219-0.219c-0.025-0.031-0.115,0.013-0.143,0
	c-0.117-0.062-0.2-0.212-0.316-0.258c-0.03-0.014-0.108,0.031-0.153,0c-0.111-0.07-0.168-0.2-0.308-0.246
	c-0.101-0.264-0.513-0.328-0.425-0.69c0.026-0.136,0.145-0.116,0.208-0.167c0.021-0.02-0.005-0.098,0-0.124
	c0.021-0.031,0.155-0.044,0.155-0.044c0.044-0.065,0.019-0.226,0.146-0.175c0.066-0.406,0.613-0.471,0.597-0.865
	c1.229-0.502,1.768-1.638,2.33-2.762v-0.413c0.188,0.013,0.044-0.245,0.088-0.368c-0.031-0.006-0.088,0.006-0.088-0.02
	c-0.1-0.308-0.363-0.484-0.435-0.812c-0.163-0.071-0.163-0.277-0.143-0.504c0.057-0.052,0.203-0.045,0.238-0.103
	c0.316,0.173,0.612,0.38,1.098,0.412c0.214-0.089,0.349-0.122,0.651-0.142c0.058-0.045,0.083-0.111,0.188-0.111
	c0.005,0.059,0.052,0.104,0.124,0.111c0.41-0.206,1.09-0.181,1.649-0.111c0.322-0.18,0.458-0.534,0.926-0.593
	c0.353-0.231,0.335-0.826,0.605-1.154V7.939c-0.331-0.143-0.231-0.568-0.149-0.898c0-0.039-0.082-0.012-0.097-0.046
	c0.045-0.245-0.096-0.315-0.06-0.56c-0.393-0.389-0.939-0.66-1.438-0.949C42,5.506,41.923,5.46,41.864,5.376
	c-0.257,0.033-0.314-0.097-0.578-0.052c-0.377-0.271-0.839-0.445-1.416-0.536c-0.051,0.007-0.018,0.072-0.096,0.059
	c-0.31-0.006-0.664,0.032-0.82-0.116c-0.354,0.116-0.895,0.064-1.263,0.174c-1.55-0.078-3.01-0.251-4.663-0.219
	c-0.057-0.02-0.021-0.111-0.121-0.085c-0.238,0.014-0.451-0.082-0.698-0.114c-0.732-0.097-1.528-0.117-2.058-0.421
	c0.039-0.219-0.091-0.271-0.061-0.478c-0.437-0.116-0.327-0.749-0.462-1.136c-0.26-0.064-0.237-0.381-0.237-0.671
	c-0.184-0.251-0.416-0.464-0.654-0.666V0.948c-0.54-0.304-1.434-0.936-2.025-0.31c-0.259,0.006-0.445-0.148-0.735-0.142
	c-0.335,0-1.285,0.058-1.445,0.142c-0.621-0.02-1.108,0.077-1.16,0.587c-0.086,0-0.164,0-0.146,0.078
	c-0.042,0.102,0.103,0.044,0.085,0.142c-0.222,0,0.026,0.433-0.16,0.478c0.083,0.549-0.199,1.181-0.144,1.84
	c0.188,0.148,0.104,0.586,0.144,0.723c-0.267,0.271-1.213-0.071-1.368,0.302c-1.028,0.214-2.118,0.336-3.285,0.395
	c-0.084-0.013-0.026,0.102-0.125,0.082c-1.697,0.111-2.896,0.356-4.542,0.498c-0.078,0-0.025,0.117-0.125,0.078
	c-0.223-0.007-0.392,0.039-0.488,0.129c-0.657,0.102-1.266,0.232-1.66,0.574c-0.645,0.169-1.129,0.497-1.625,0.814
	C9.788,7.855,9.615,8.353,9.388,8.785c-0.038,0.291,0.046,0.582,0,0.827c0.175,0.16,0.35,0.328,0.452,0.56
	c0.228,0.065,0.335,0.252,0.407,0.486c0.078,0,0.084,0.076,0.205,0.044c0.2,0.303,0.556,0.464,0.839,0.697
	c0.144,0.013,0.272,0.039,0.333,0.143c0.347,0.065,0.707,0.116,1.012,0.219c0.082-0.026,0.155-0.077,0.31-0.052v0.11
	c0.717,0.226,1.685,0.077,2.078-0.31c0.601,0.084,1.117-0.743,1.66-0.361c-0.146,0.155-0.207,0.374-0.361,0.503
	c-0.162,0.123-0.131,0.174-0.221,0.33c0,0.019-0.084-0.013-0.098,0c-0.025,0.026,0.031,0.097,0,0.116
	c-0.029,0.051-0.124,0.051-0.149,0.084c-0.127,0.181-0.026,0.394-0.062,0.678c0.188,0.135,0.244,0.4,0.311,0.658
	c0.304,0.103,0.381,0.413,0.672,0.536c0.26-0.039,0.586-0.078,1.043-0.117c0.221-0.025,0.498,0.013,0.653-0.052
	c0.166-0.089,0.148-0.265,0.296-0.315h1.661c0.172,0.083,0.326,0.193,0.604,0.167c0.104,0.174,0.29,0.251,0.562,0.264
	c0.232,0.135,0.567,0.201,0.889,0.279c0.221,0.179,0.401,0.425,0.743,0.522c0.041,0.142,0.171,0.207,0.29,0.277
	c0.06,0.303,0.44,0.277,0.504,0.562c0.094,0.033,0.159,0.104,0.271,0.137c0.013,0.245,0.2,0.328,0.304,0.502
	c-0.125,0.259-0.354,0.42-0.735,0.439c-0.054,0.135-0.271,0.102-0.271,0.257c-0.289,0.053-0.477,0.207-0.677,0.329
	c-0.641,0.155-1.22,0.368-1.841,0.536c-0.129-0.033-0.16,0-0.316,0c0.021,0.078-0.103,0.051-0.113,0.104
	c-1.201,0.38-2.378,0.962-3.614,1.323c-0.14,0.024-0.324,0.083-0.471,0.097c-0.654,0.104-1.117,0.344-1.926,0.291
	c-0.472,0.154-1.008,0.246-1.536,0.36c-0.344-0.031-0.534,0.098-0.884,0.046c-1.157,0.207-2.484,0.245-3.81,0.284
	c-0.082-0.007-0.031,0.116-0.122,0.084c-0.354-0.026-0.858,0.083-1.077-0.084c-0.659,0.045-1.156-0.06-1.779-0.052
	c-0.332-0.4-1.133-0.619-1.867-0.697c-0.59-0.065-1.092,0.007-1.502,0.244c-0.385,0.008-0.614,0.144-0.981,0.175
	c-0.277,0.245-0.602,0.434-0.918,0.634c-0.015,0.219,0.046,0.497-0.154,0.536v1.252c0,0.044,0.078,0.019,0.091,0.058
	c0,0.328,0.098,0.58,0.212,0.807c0.061,0.607,0.42,0.936,0.523,1.504c0.032,0.006,0.084-0.006,0.09,0.025
	c-0.014,0.322,0.189,0.444,0.215,0.736c0.431,0.296,0.799,0.67,1.193,1h0.218c0.026,0.07,0.073,0.135,0.124,0.188
	c1.144,0.498,2.484,0.807,3.834,1.123h0.553c0.737-0.258,1.554-0.438,2.392-0.594c0.022-0.07,0.091-0.103,0.168-0.129
	c0.938-0.258,1.683-0.704,2.56-1.013c0.008-0.038-0.011-0.097,0.041-0.109c0.292,0,0.427-0.155,0.735-0.167
	c-0.033-0.109,0.043-0.123,0.086-0.162c0.357-0.16,0.946-0.537,1.411-0.135c0,0.044,0.032,0.044,0.063,0.076
	c-0.051,1.07-0.085,2.156-0.063,3.285c-0.013,0.059-0.122,0.025-0.091,0.109c-0.083,1.24,0.123,2.209,0.154,3.351
	c0,0.032,0.079,0.02,0.093,0.063c0,0.342-0.031,0.726,0.121,0.942c-0.188,0.264,0.06,0.58,0.097,0.83
	c0.389,0.284,0.717,0.621,1.07,0.95h0.215c0.282,0.281,0.819,0.334,1.315,0.419c0.419,0.071,0.885-0.013,1.322-0.115
	c0.104-0.09,0.26-0.156,0.486-0.129c0.438-0.252,0.973-0.3,1.289-0.595c0.136-0.108,0.237-0.271,0.312-0.389
	c0.052-0.082,0.218-0.166,0.243-0.283c0.162-0.61-0.077-1.324,0-2.033c0.1-0.948,0.053-1.916,0.065-2.813
	c0.009-0.059,0.115-0.026,0.097-0.116c-0.026-0.438,0.108-0.762,0.116-1.195c0.221,0.021,0.335-0.166,0.484-0.25
	c0.031-0.006,0.088,0.013,0.121,0c0.11-0.059,0.232-0.258,0.4-0.342c0.175-0.07,0.265-0.188,0.407-0.244
	c0.082-0.032,0.266-0.014,0.388-0.053c0.09-0.025,0.142-0.097,0.221-0.104c0.281-0.059,0.631,0,0.98,0.013
	c0.018,1.065,0.27,1.917,0.243,3.015c-0.053,0-0.104,0-0.098,0.06c0.045,0.901-0.167,1.601-0.206,2.433
	c-0.014,0.038-0.122,0.014-0.091,0.104v1.979c-0.012,0.072,0.109,0.014,0.091,0.111c-0.052,0.309,0.096,0.451,0.153,0.664
	c-0.059,0.053-0.094,0.109-0.094,0.199c0.128,0.231,0.128,0.594,0.146,0.916c0,0.047,0.092,0.014,0.098,0.059
	c0.082,1.576,0.64,2.711,1.199,3.836c-0.019,0.264,0.078,0.387,0.086,0.598C26.06,40.867,26,41.043,26,41.133
	c0.213,0.076,0.199,0.322,0.244,0.535c0.169,0,0.203,0.104,0.229,0.221c0.141,0.039,0.301,0.053,0.301,0.197
	c0.239,0,0.382,0.094,0.582,0.105c0.434-0.123,0.893-0.207,1.162-0.459c0.644-0.205,1.012-0.65,1.354-1.117
	c0.129,0.033,0.091-0.07,0.188-0.051c0.039-0.104-0.104-0.031-0.069-0.117h0.16c0.257-0.49,0.479-1.012,0.528-1.703
	c0.039-0.014,0.092,0,0.087-0.059c-0.062-0.586,0.088-0.994,0.057-1.561c0.006-0.061,0.122-0.021,0.097-0.104
	c0.008-1.104,0.008-2.183,0.061-3.351c0.01-0.06,0.108-0.021,0.082-0.116c-0.031-0.748,0.114-1.328,0.069-2.084
	c-0.012-0.072,0.117-0.025,0.093-0.117c0-1.334,0.174-2.511,0.12-3.905c0.148-0.052,0.144-0.238,0.148-0.413
	c0.169-0.104,0.182-0.362,0.343-0.471c0.686-0.071,0.968,0.231,1.505,0.296c0.011,0.078,0.07,0.104,0.123,0.148
	c-0.008,0.182-0.026,0.367,0.082,0.439c-0.075,1.543,0.169,3.149,0.13,4.821c0,0.053,0.092,0.021,0.092,0.053
	c-0.025,0.568,0.03,1.033,0.062,1.535c0,0.054,0.086,0.026,0.099,0.06c-0.029,0.64,0.387,0.864,0.581,1.315h0.148
	c0.161,0.271,0.433,0.438,0.768,0.549c-0.043,0.244,0.239,0.175,0.213,0.4c0.103-0.021,0.2-0.007,0.148,0.104
	c0.355,0.153,0.768,0.097,1.137,0c0.011-0.032-0.006-0.104,0.035-0.104c0.344-0.201,0.702-0.39,1.164-0.472
	c0.229-0.349,0.503-0.627,0.763-0.931c-0.03-0.231,0.155-0.246,0.131-0.471c0.166-0.007,0.069-0.261,0.247-0.261
	c0.018-0.297,0.248-0.418,0.216-0.772c-0.013-0.069,0.118-0.021,0.085-0.103c0.018-0.557,0.275-0.894,0.275-1.452
	c0.045,0,0.115,0,0.089-0.06c-0.171-0.111-0.005-0.259-0.089-0.369c0.156,0.033,0.105-0.137,0.254-0.108
	c-0.04-1.001,0.058-2.181,0-3.009c0.082-0.004,0.007-0.153,0.121-0.147c-0.063-0.303-0.021-0.974,0.271-1.168
	c0.897,0.071,1.439,0.466,2.336,0.529c0.047,0.071,0.139,0.104,0.176,0.175c0.652,0.143,1.122,0.445,1.729,0.639
	c-0.036-0.097,0.084-0.039,0.144-0.058c-0.013,0.09,0.06,0.083,0.034,0.168c0.082,0,0.088-0.084,0.223-0.045
	c-0.052,0.108,0.062,0.082,0.062,0.155c0.433,0.166,0.832,0.381,1.283,0.541c0.097-0.084,0.344-0.039,0.426-0.123
	c0.404,0.11,0.955-0.109,1.24-0.303v-0.162c0.196-0.088,0.463-0.135,0.549-0.349c0.057-0.005,0.057,0.046,0.091,0.063
	c0.068-0.069,0.146-0.123,0.218-0.199c0.717-0.291,1.142-0.838,1.77-1.221c-0.047-0.121,0.109-0.096,0.062-0.231
	c0.188,0.033,0.229-0.083,0.316-0.162c-0.097,0.033-0.069-0.063-0.069-0.11c0.038-0.039,0.135-0.031,0.212-0.031
	c0.143-0.406,0.657-0.465,0.522-1.11c0.115-0.039,0.099-0.212,0.099-0.362C51.718,24.467,51.49,24.299,51.284,24.112"/>
<path fill="#FFFFFF" d="M86.051,17.598c0.142,0.086,0.446,0.049,0.591,0c0.045,0.104-0.088,0.055-0.088,0.127
	c0.859,0.031,1.811-0.184,2.707-0.055c0.1-0.024,0.073,0.074,0.122,0.086c1.067,0.043,1.675,0.515,2.539,0.767
	c0.062,0.124,0.24,0.151,0.289,0.283c0.56,0.202,0.797,0.681,1.283,0.933c0,0.08,0.092,0.08,0.05,0.184
	c0.27,0.043,0.257,0.345,0.446,0.455v0.184c0.092,0.044,0.1,0.174,0.203,0.216c-0.104,0.142,0.022,0.154,0.086,0.265
	c-0.158-0.024-0.111,0.361,0,0.344c-0.133,0.012-0.069,0.189-0.086,0.318c-0.16,0.197-0.455,0.289-0.492,0.603
	c-0.311,0.073-0.454,0.288-0.644,0.454h-0.116c-0.37,0.343-0.878,0.57-1.222,0.933c-0.146,0.049-0.354,0.049-0.472,0.122h-0.56
	c-0.062-0.007-0.047,0.055-0.079,0.055c-0.399-0.023-0.608,0.094-1.007,0.062c-0.811,0.104-1.526-0.312-2.466-0.264
	c-0.099,0.019-0.067-0.074-0.117-0.086c-1.104,0-2.117-0.11-3.179-0.153c-0.095-0.031-0.179-0.074-0.257-0.104
	c-0.365,0.223-0.891-0.023-1.432,0.055c-0.068,0.031-0.021,0.172-0.037,0.259c-0.078-0.019-0.066,0.03-0.146,0.03
	c0,0.129,0.019,0.295-0.057,0.369c0.146,0.104-0.05,0.521,0.146,0.582c-0.021,0.094-0.139,0.123-0.089,0.289
	c3.035,0.038,5.89,0.239,8.521,0.645c0.01,0.121,0.232,0.08,0.195,0.258c0.205,0,0.275,0.141,0.294,0.324
	c0.056,0.056,0.131,0.093,0.266,0.068c0.042,0.11-0.128,0.019-0.124,0.092c0.229,0.367,0.627,0.576,0.652,1.135
	c-0.025,0.08,0.09,0.037,0.078,0.109c-0.136,0.743-0.498,1.282-0.73,1.952c-0.093,0.037-0.184,0.073-0.288,0.11
	c-0.007,0.189-0.146,0.27-0.227,0.398c-0.318,0.006-0.491,0.336-0.821,0.393c-0.553,0.105-1.15-0.006-1.782,0.055
	c-0.182-0.129-0.581-0.043-0.812-0.183c-0.1-0.031-0.045,0.085-0.119,0.079c-0.078-0.025-0.139-0.073-0.17-0.141
	c-0.092-0.02-0.041,0.104-0.155,0.062c-1.229-0.196-2.362-0.173-3.618-0.376c-0.112-0.023-0.049,0.087-0.172,0.056
	c-0.104,0.043-0.005-0.114-0.08-0.104c-0.098,0.019-0.141,0.086-0.172,0.16c-0.19-0.024-0.516,0.057-0.614-0.057
	c-0.013,0.104-0.159,0.094-0.12,0.24c0,0.054,0.107,0.011,0.146,0.02c-0.086,0.459-0.057,0.92,0,1.441
	c0.363,0.018,0.738,0.184,1.172,0.227c0.97,0.129,2.172-0.117,2.799,0.311c1.035-0.016,1.87,0.17,2.834,0.256
	c0.087-0.021,0.033,0.08,0.074,0.104c0.373-0.152,0.828,0.037,1.264,0c0.086-0.006,0.086,0.086,0.143,0.104
	c0.117,0.022,0.103-0.086,0.226-0.056c0.314,0.099,0.622,0.13,0.94,0.179c0.093,0.037,0.193,0.104,0.288,0.114
	c0.084,0.015,0.208-0.012,0.294,0c1.997,0.388,3.769,1.111,5.89,1.375c0.094-0.012,0.069,0.074,0.119,0.087
	c0.189-0.025,0.453,0.073,0.586,0.104c0.268,0.066,0.566,0.062,0.764,0.158c0.029,0.021,0.017,0.086,0.054,0.11
	c0.182,0.078,0.344,0.035,0.438,0.185c0.019,0.024-0.02,0.074,0,0.104c0,0,0.115,0.021,0.158,0.058c0,0.019-0.035,0.078,0,0.099
	c0.063,0.086,0.26,0.159,0.186,0.403c-0.024,0.074,0.105,0.039,0.091,0.104c-0.017,0.158,0.024,0.256,0.055,0.36
	c0.045,0.111-0.07,0.058-0.055,0.136c0.1,0.11,0.008,0.405,0.147,0.479c-0.133,0.189-0.164,0.475-0.385,0.59
	c0,0.115-0.021,0.244-0.139,0.266c0.057,0.227-0.207,0.387-0.269,0.559c-0.047,0.166-0.041,0.166-0.146,0.312
	c-0.123,0.188-0.295,0.275-0.291,0.594c-0.496,0.51-1.004,1.186-1.748,1.395c-0.329,0.281-0.829,0.51-1.259,0.562
	c-0.078-0.023-0.115-0.062-0.141-0.133c-0.099-0.021-0.062,0.07-0.146,0.041c-0.252-0.098-0.64-0.098-0.849-0.258
	c-0.87-0.086-1.525-0.381-2.299-0.559c-0.113-0.117-0.346-0.104-0.404-0.266c-0.105-0.023-0.094,0.043-0.18,0.023
	c-0.025-0.031-0.055-0.08-0.079-0.111c-1.11-0.256-2.021-0.699-3.106-0.973c-0.01-0.031-0.034-0.068-0.024-0.131
	c-0.138,0.068-0.488-0.074-0.637-0.164c-1.406-0.221-2.615-0.625-4.056-0.818c-0.1,0.021-0.061-0.072-0.116-0.078
	c-4.357-0.562-9.916-0.568-14.255,0c-0.718,0.223-1.607,0.277-2.25,0.561h-0.267c-0.81,0.242-1.804,0.312-2.679,0.502
	c-0.722,0.389-1.556,0.648-2.369,0.949c-0.246,0.186-0.597,0.266-0.902,0.398h-0.173c-0.771,0.221-1.613,0.572-2.507,0.449
	c-0.276-0.037-0.486-0.287-0.787-0.287c-0.107-0.174-0.252-0.271-0.289-0.48c-0.158-0.129-0.318-0.258-0.379-0.479
	c-0.302-0.141-0.484-0.387-0.712-0.607c0.03-0.135-0.007-0.215-0.081-0.27c-0.018-0.301-0.086-0.547-0.05-0.891
	c0.018-0.098-0.096-0.043-0.091-0.109c0.024-0.275-0.029-0.699-0.207-0.877c0.157-0.443,0.655-0.578,0.932-0.902
	c0.203-0.043,0.398-0.098,0.497-0.232c0.485-0.062,0.827-0.383,1.255-0.404c0.064-0.107,0.193-0.156,0.4-0.156
	c1.025-0.438,2.289-0.664,3.622-0.824c0.151,0.062,0.513-0.006,0.647-0.129c0.842-0.117,1.528-0.373,2.386-0.479
	c0.549-0.164,1.396-0.345,2.01-0.295c0.398-0.17,1.165-0.019,1.462-0.287c0.594,0.03,1.09-0.301,1.637-0.154
	c0.018-0.077,0.146-0.055,0.256-0.055c0.088-0.013,0.096-0.086,0.179-0.108c0.426,0.022,0.885-0.144,1.246,0
	c0.178-0.101,0.325-0.197,0.645-0.146c0.095,0.016,0.045-0.095,0.119-0.095c0.582,0.043,1.12-0.222,1.545-0.157
	c0.319-0.089,0.022-0.461,0.182-0.634c-0.256-0.397,0.187-0.748,0.139-1.092c-0.031-0.232-0.241-0.338-0.297-0.602
	c-1.011,0.109-1.858,0.386-2.996,0.398c-0.151,0.057-0.279,0.129-0.463,0.151c-0.044,0.209-0.332,0.209-0.383,0.406
	c-1.004,0.036-1.848-0.062-2.625-0.215c-0.123-0.123-0.317-0.191-0.527-0.24c-0.471-0.551-1.329-0.747-1.483-1.595
	c-0.24-0.283-0.364-0.778-0.229-1.238c0.137-0.093,0.058-0.406,0.229-0.479c0.011-0.062-0.137,0.013-0.093-0.08
	c0.128,0.049,0.06-0.068,0.093-0.111c0.108-0.116,0.316-0.196,0.288-0.441c0.306-0.109,0.508-0.246,0.822-0.406
	c0.153-0.072,0.242-0.183,0.373-0.256c0.031-0.02,0.099,0.012,0.111,0c0.172-0.104,0.28-0.271,0.471-0.35
	c0.086,0,0.058,0.091,0.182,0.061c0.062,0,0.005-0.115,0.034-0.172c0.75-0.037,1.691,0.1,2.27-0.104
	c0.104-0.037,0.058,0.079,0.137,0.061c0.123-0.037,0.265-0.055,0.269-0.185c1.16-0.043,2.166-0.215,3.351-0.228
	c0.104-0.006,0.104-0.127,0.173-0.178c-0.062-0.392-0.173-0.736-0.141-1.208c-0.189-0.019-0.283-0.128-0.495-0.116
	c-0.879,0.418-2.546,0.123-3.321,0.633c-0.346-0.024-0.7,0.121-1.051,0.158c-0.272-0.171-0.582,0.221-0.844,0.062
	c-0.094-0.03-0.058,0.062-0.064,0.104c-0.938,0.154-1.655,0.289-2.709,0.16c-0.371-0.293-0.988-0.35-1.281-0.717
	c-0.608-0.203-0.904-0.7-1.176-1.221c0.039-0.215-0.097-0.271-0.055-0.51c0.031-0.08-0.084-0.03-0.08-0.098
	c0-0.369-0.061-0.786,0.135-0.977c0.05-0.104-0.071-0.062-0.055-0.142c0.049-0.368,0.241-0.595,0.355-0.889
	c0.112,0.036,0.057-0.08,0.139-0.067c0.152-0.419,0.524-0.64,0.735-0.994c0.482,0.043,0.675-0.02,1.162-0.057
	c0.267-0.238,0.688-0.312,1.002-0.509c1.269-0.056,2.726-0.245,4.013-0.104c0.499-0.092,1.383-0.092,1.871,0
	c0.547-0.092,1.217-0.062,1.811-0.109c0.086,0,0.119-0.068,0.166-0.098c0.105-0.031,0.105,0.041,0.16,0.055
	c0.049,0,0.012-0.092,0.078-0.086c1.635-0.11,3.351,0.055,5.217,0c0.104-0.024,0.062,0.074,0.122,0.086
	c0.897-0.042,1.655,0.117,2.479,0c0.094,0.013,0.05-0.092,0.118-0.086h2.588v-0.077L86.051,17.598L86.051,17.598z"/>
<path fill="#FFFFFF" d="M70.055,3.81c0.088,0.062,0.314,0.031,0.351-0.049c0.514,0.263,1.195-0.104,1.97,0
	c0.095-0.025,0.062,0.068,0.129,0.08c0.564,0.032,1.282-0.067,1.742,0.056c0.81-0.172,1.638,0.054,2.284,0.208
	c0.034-0.019,0.024-0.081,0.107-0.05c0.088,0.043,0.202,0.05,0.241,0.159c0.04-0.013,0.14,0.019,0.109-0.06
	c0.257,0.227,0.7,0.3,0.849,0.637c0.243,0.043,0.286,0.271,0.493,0.374c0.074,0.467,0.272,0.804,0.439,1.19
	c0.039,0.246-0.105,0.663,0.077,0.768c-0.116,0.043-0.077,0.221-0.077,0.38c-0.015,0.081-0.132,0.075-0.144,0.154
	c-0.079,0.533-0.553,0.7-0.879,1c-1.342,0.356-3.489,0.155-4.907,0.081c-0.087,0.024-0.058-0.062-0.111-0.081
	c-0.81-0.042-1.552-0.128-2.324-0.208c-0.589-0.056-1.153,0-1.76,0.056c-0.935,0.081-1.937-0.056-2.91,0.049
	c-0.441,0.141-0.146,0.503-0.179,0.926c0.107,0.056,0.229,0.073,0.266,0.19c2.258,0.037,4.691-0.128,6.702,0
	c0.494-0.08,1.231,0.062,1.643,0.24c0.093,0.025,0.111-0.043,0.197-0.025c0.029,0.025,0.055,0.05,0.098,0.068
	c1.496,0.128,2.576,0.644,3.958,0.882c0.159,0.209,0.38,0.369,0.643,0.503c-0.006,0.172,0.05,0.473,0,0.664
	c-0.019,0.037-0.089,0.055-0.089,0.08c-0.008,0.036,0.089,0.054,0.089,0.048c-0.006,0.037-0.084,0.049-0.089,0.08
	c-0.069,0.184,0.011,0.497-0.057,0.749c-0.196,0.313-0.252,0.761-0.586,0.951c0.04,0.178-0.104,0.208-0.059,0.374
	c-0.191,0.19-0.289,0.467-0.436,0.688c-0.105,0.037-0.217,0.074-0.212,0.215c-0.207-0.031-0.219,0.11-0.291,0.203
	c-0.346,0.203-0.824,0.288-1.313,0.343c-0.607,0-1.138,0.031-1.683-0.049c-0.073-0.006-0.147-0.085-0.246-0.11
	c-0.152-0.025-0.22-0.062-0.344-0.098c-0.176-0.056-0.372-0.056-0.534-0.11c-0.054-0.025-0.089-0.105-0.171-0.13
	c-0.17-0.055-0.367-0.049-0.59-0.097c-0.034-0.021-0.084-0.105-0.128-0.118c-0.073-0.013-0.148,0.024-0.208,0
	c-0.345-0.105-0.695-0.301-0.957-0.338c-0.626-0.104-1.179-0.257-1.814-0.374c-0.114,0-0.114-0.104-0.192-0.134
	c-0.656-0.068-1.569-0.111-2.117,0.078c-0.809-0.006-1.416,0.173-1.796,0.553c-0.354,0.086-0.461,0.398-0.825,0.485
	c-0.396,0.49-1.159,0.656-1.654,1.061c-0.834-0.054-1.28,0.258-2.067,0.228c-0.467-0.27-1.085-0.387-1.521-0.682
	c-0.065-0.214,0-0.563-0.147-0.711v-0.398c0.02-0.062-0.049-0.037-0.06-0.087c-0.024-0.454,0.023-0.791,0.207-1.085
	c0,0,0.078,0.019,0.086,0c0.042-0.067,0-0.214,0.062-0.263c0.013-0.006,0.079,0.012,0.079,0.012
	c0.045-0.081,0.024-0.147,0.068-0.215c0.024-0.062,0.104-0.086,0.142-0.147c0.023-0.042-0.019-0.111,0-0.154
	c0.023-0.048,0.114-0.048,0.152-0.103c0.127-0.202,0.164-0.448,0.339-0.584c-0.1-0.429,0.127-0.908,0.059-1.453
	c-0.004-0.043-0.079-0.031-0.113-0.031c-0.044-0.257-0.178-0.435-0.283-0.632c-0.159-0.042-0.289-0.109-0.411-0.184
	c-0.287,0.093-0.562,0.208-0.901,0.258c-0.999-0.141-1.468-0.78-2.134-1.209c0.035-0.128-0.082-0.109-0.064-0.214
	c-0.275-0.141-0.256-0.545-0.582-0.639c-0.011-0.146-0.029-0.3-0.147-0.35c0.168-0.079,0.063-0.423,0.089-0.632
	c0.611-0.196,0.661-0.89,1.193-1.141c0.242-0.282,0.727-0.338,1.08-0.503c0.573,0.037,0.78-0.104,1.26-0.159
	c0.201-0.13,0.546-0.295,0.783-0.215c0.045,0,0.031-0.062,0.045-0.099c0.398-0.141,0.935-0.189,1.396-0.301
	c0.523-0.073,1.008-0.091,1.572-0.256c0.03-0.006,0.03-0.074,0.042-0.086c0.185-0.081,0.736-0.141,1.038-0.209
	c0.096-0.031,0.178-0.087,0.26-0.105c0.152-0.031,0.227-0.012,0.311-0.103c-0.006-0.854,0.239-1.467,0.396-2.179
	c0.09-0.031,0.01,0.092,0.104,0.055c-0.015-0.104,0.083-0.055,0.152-0.11c0.024-0.018,0-0.067,0.024-0.104
	c0.024-0.019,0.099,0,0.108-0.019c0.039-0.042,0-0.117,0.039-0.171c0.024-0.049,0.163-0.123,0.228-0.204
	c0.139-0.177,0.231-0.22,0.495-0.349c0.056-0.025,0.121-0.099,0.121-0.099c0.246-0.066,0.522,0.037,0.929,0
	c0.073,0.043,0.182,0.037,0.23,0.099c0.548,0.006,0.952-0.099,1.345,0c0.677,0.184,0.861,0.853,1.24,1.276
	C70.011,2.631,70.076,3.123,70.055,3.81"/>
<path fill="#FFFFFF" d="M93.747,7.669c-0.209,0.006-0.486-0.178-0.614-0.368c0.042-0.135,0.252-0.11,0.234-0.295
	c0.146,0.018,0.22-0.03,0.207-0.159c0.239,0.019,0.215-0.209,0.491-0.159c0.037,0.135,0.252,0.098,0.227,0.27
	c0.106,0.03,0.037-0.092,0.122-0.049c0.099,0.109,0.259,0.165,0.227,0.393C94.292,7.257,94.041,7.665,93.747,7.669 M89.226,9.792
	c-0.166-0.165-0.413-0.275-0.432-0.582c-0.155-0.067-0.189-0.233-0.293-0.344c0.005-0.134,0.229-0.097,0.229-0.246
	c0.55,0.192,0.875,0.571,1.255,0.91C89.775,9.656,89.538,9.763,89.226,9.792 M101.427,5.718V5.479
	c-0.053-0.093-0.121-0.172-0.192-0.234c-0.252-0.527-0.916-0.638-1.238-1.092c-1.127-0.079-2.084-0.307-3.003-0.577
	c0.017-0.092,0.081-0.141,0.147-0.189c0-0.222-0.041-0.491,0.152-0.553c0.012-0.159-0.018-0.282-0.093-0.343
	c0.031-0.239-0.109-0.319-0.062-0.553c-0.188-0.097-0.141-0.392-0.357-0.459c0.023-0.153-0.095-0.159-0.138-0.264H96.5
	c-0.331-0.374-0.863-0.563-1.227-0.902h-0.156c0.045-0.086-0.088-0.018-0.046-0.098c-0.21,0.018-0.173-0.16-0.388-0.116
	c0.044-0.081-0.092-0.013-0.056-0.1c-0.828,0.038-1.376,0.351-1.869,0.718c-0.016,0.173-0.094,0.301-0.05,0.528
	c-0.167,0.159-0.118,0.522-0.437,0.528c-0.303,0.233-0.521,0.534-0.941,0.662c-0.256,0.27-0.532,0.523-0.99,0.606
	c-0.016,0.18-0.297,0.118-0.381,0.246c-0.383,0-0.493,0.271-0.896,0.264c-0.024,0.067-0.092,0.086-0.116,0.154
	c-0.219-0.037-0.27,0.073-0.387,0.134c-0.326,0.013-0.528,0.141-0.904,0.099c-0.046,0.011-0.018,0.066-0.084,0.06
	c-0.238-0.037-0.325,0.081-0.552,0.055C86.1,4.49,84.626,4.098,83.375,4.212c-0.193,0.069-0.446,0.094-0.692,0.1
	c-0.079-0.006-0.038,0.103-0.122,0.08c-0.229-0.198-0.806,0.012-1.111-0.08c-0.074,0.012-0.037,0.103-0.086,0.141
	c-0.117-0.038-0.055,0.081-0.171,0.043c0.029,0.202-0.246,0.129-0.21,0.325c-0.066-0.006-0.11,0.006-0.146,0.037
	c-0.057,0.153-0.168,0.306-0.297,0.411c-0.086,0.324-0.044,0.767-0.054,1.165c0.128,0.069,0.22,0.184,0.351,0.271
	c-0.008,0.22,0.207,0.239,0.202,0.472c0.202,0.109,0.429,0.202,0.487,0.423c0.42,0.288,0.824,0.601,1.233,0.901
	c0.32,0.099,0.572,0.258,0.792,0.448c0.772,0.104,0.834,0.865,1.362,1.197c0.057,0.166,0.148,0.282,0.123,0.528
	c-0.141-0.05-0.099,0.073-0.147,0.103c-1.104,0.038-2.345,0.197-3.33,0.161c-0.093,0.061-0.148,0.061-0.252,0
	c-0.513,0.263-0.945,0.576-1.357,0.927c-0.046,0.227-0.16,0.398-0.11,0.717c-0.22,0.375,0.044,1.382-0.139,1.854
	c0,0.049,0.071,0.03,0.06,0.079c-0.06,0-0.073,0.031-0.06,0.074c0.071,0.411,0.207,0.743,0.341,1.092
	c0.419-0.037,0.32,0.411,0.656,0.454c0,0.183,0.203,0.183,0.283,0.295c0.166,0.386,0.797,0.38,1.282,0.527
	c0,0,0.014,0.067,0.022,0.08c0.131,0.055,0.454,0.037,0.622,0.111c0.578,0.232,1.527,0.023,2.324,0.092
	c0.039-0.08,0.19-0.035,0.307-0.049c0.872-0.541,2.375-0.522,3.253-1.056h0.271c0.013-0.043-0.042-0.141,0.023-0.141
	c0.224-0.031,0.431-0.081,0.498-0.265c0.326-0.165,0.716-0.276,0.987-0.49c0.872-0.271,1.461-0.792,2.397-0.989
	c0.016-0.037,0.032-0.061,0.055-0.079c0.651-0.093,1.104-0.375,1.604-0.609c0.01-0.043-0.012-0.104,0.03-0.104
	c0.507,0,0.687-0.313,1.104-0.4c0.013-0.041-0.013-0.097,0.029-0.103h0.179c-0.01-0.068,0.015-0.099,0.056-0.105
	c0.441-0.178,0.625-0.569,1.074-0.724c0.036-0.061,0.055-0.146,0.122-0.184c0.419-0.153,0.646-0.485,0.992-0.681v-0.134
	c0.296-0.086,0.443-0.313,0.554-0.559c0.168-0.055,0.274-0.165,0.301-0.349c0.168,0,0.11-0.208,0.276-0.208
	c-0.045-0.191,0.197-0.104,0.16-0.294c0.269-0.161,0.388-0.467,0.648-0.663c0.008-0.098,0.016-0.203,0.135-0.214
	c0.137-0.546,0.564-0.841,0.699-1.393c0.18-0.167,0.276-0.388,0.276-0.724h0.158C101.46,6.448,101.632,5.963,101.427,5.718"/>
<path fill="#FFFFFF" d="M176.301,2.411c1.955,0.081,4.142-0.043,5.375,0.718c0.271,0.264,0.498,0.584,0.845,0.811
	c0.172,0.281,0.336,0.57,0.452,0.901c0.158,0.607-0.116,0.987-0.399,1.386c-0.182,0.252-0.521,0.411-0.812,0.522
	c-1.494-0.148-3.156-0.136-4.758-0.185c0.094,0.117,0.025,0.381,0.145,0.472c0.139,0.099,0.767,0.056,1.197,0.056
	c0.781,0,1.273,0,1.955,0.055c0.309,0.031,0.746,0.031,0.963,0.055c0.678,0.085,1.084,0.393,1.623,0.472
	c-0.041,0.167,0.188,0.08,0.162,0.245h0.287c0.268,0.437,0.527,0.976,0.553,1.479c-0.068,0.143-0.121,0.276-0.121,0.485
	c-0.074,0.117-0.254,0.153-0.26,0.338c-0.207,0.055-0.352,0.184-0.459,0.312c-0.34,0.019-0.672,0.362-0.977,0.406
	c-0.104,0.011-0.203-0.044-0.312-0.062c-1.422-0.105-2.358,0.043-3.973-0.105c-0.488-0.036-1.027,0-1.517,0
	c-0.656,0-1.277,0.025-1.688,0.062c-0.676,0.05-1.287,0.007-1.988,0.105c-0.207,0.024-0.553-0.062-0.666,0.048
	c-0.451-0.061-0.934,0.117-1.312,0.16c-0.582,0.079-1.373-0.093-1.854,0.055c-0.168,0.03-0.469-0.055-0.564,0.055
	c-1.311,0.055-2.86,0.441-3.444-0.424c0.045-0.264-0.078-0.367-0.067-0.613c0.02-0.086-0.113-0.037-0.08-0.135V9.986
	c-0.033-0.099,0.069-0.086,0.08-0.142c-0.021-0.386,0.241-0.509,0.336-0.791h0.104c0.129-0.288,0.479-0.355,0.676-0.552
	c0.369-0.099,0.74-0.208,1.086-0.319c1.371-0.24,2.682-0.552,4.031-0.822c0.104-0.146,0.162-0.332,0.133-0.613
	c-0.307,0.036-0.754-0.062-0.971,0.048c-0.992,0-1.693,0.27-2.178,0.718c-0.275,0.019-0.715,0.227-0.908,0h-0.281
	c-0.279-0.129-0.592-0.228-0.938-0.295c-0.023-0.018-0.033-0.054-0.033-0.098c-0.129,0.038-0.178-0.037-0.258-0.086
	c-0.23-0.098-0.275-0.214-0.463-0.417c-0.045-0.037-0.123-0.049-0.148-0.086c-0.197-0.262-0.242-0.644-0.445-0.896
	c0.176-0.538,0.422-1.005,0.652-1.484c0.41-0.245,0.814-0.479,1.432-0.552c0.479-0.313,1.098-0.344,1.719-0.473
	c0.185-0.043,0.381-0.134,0.578-0.165c0.223-0.037,0.438,0,0.666-0.031c0.49-0.056,1.023-0.294,1.549-0.375
	c0.256-0.023,0.504-0.047,0.732-0.103c0.09-0.577,0.287-1.062,0.4-1.62c0.291-0.124,0.578-0.265,0.908-0.363
	c0.934,0.135,1.717,0.418,2.311,0.872v0.104C175.781,1.668,175.947,2.123,176.301,2.411"/>
<path fill="#FFFFFF" d="M191.501,27.01c-0.1-0.024-0.158-0.067-0.227-0.11c-3.479,0.231-7.318-0.087-10.646,0.202
	c-0.028-0.184,0.045-0.27,0.056-0.417c0.504-0.11,0.938-0.326,1.545-0.394c0.557-0.067,1.243,0,1.903,0
	c0.638,0,1.451-0.012,1.949-0.062c0.682-0.049,1.707-0.049,2.394,0c0.329,0.024,0.612,0.086,0.84,0.214c0.112-0.074,0.274,0,0.438,0
	c0.568,0.025,1.268-0.098,1.486,0.214c0.139,0,0.277,0.013,0.315,0.106c0.084,0.097,0.296-0.081,0.267,0.078
	C191.792,27.064,191.594,26.918,191.501,27.01 M190.514,30.813c-3.774,0-7.782-0.06-11.487-0.159
	c-0.178,0.08-0.308,0.012-0.435,0.111c-0.248-0.203-0.735,0.012-1.062-0.137c0.033-0.36,0.547-0.397,0.812-0.473
	c0.26-0.066,0.936-0.023,1.461-0.023c0.885,0,1.707,0.061,2.482,0.136c2.043,0.165,4.096,0.006,5.809,0
	c0.744,0.196,1.545,0.091,2.479,0.202C190.712,30.605,190.525,30.672,190.514,30.813 M181.322,22.364
	c2.635,0.062,5.062-0.018,7.623,0.185c0.385-0.092,0.83,0.16,1.313,0.16c0.127,0.141,0.397,0.146,0.526,0.293
	c-0.1,0.166-0.346,0.19-0.475,0.318c-1.025-0.177-2.188-0.221-3.297-0.318c-0.152,0.043-0.252,0.013-0.438,0
	c-0.543-0.062-1.348-0.049-1.776-0.08c-0.894-0.073-1.545-0.024-2.181,0c-0.469-0.129-1.014,0.099-1.299-0.215L181.322,22.364
	L181.322,22.364z M175.238,15.204c-0.125-0.183-0.074-0.668,0-0.871c0.805-0.118,1.875-0.264,2.619,0
	c0.135,0.166,0.021,0.565,0.063,0.828C177.107,15.161,176.124,15.376,175.238,15.204 M169.868,15.866
	c-0.736-0.013-1.303,0.13-2.043,0.118c0.045-0.313-0.039-0.718,0-1.147c0.611-0.105,1.371-0.075,2.111-0.075
	C169.971,15.186,169.849,15.461,169.868,15.866 M198.855,19.363c-0.074-0.018-0.148-0.048-0.213-0.085
	c-0.228-0.221-0.611-0.308-0.845-0.522c-1.215-0.244-2.676-0.281-4.176-0.151c-1.361,0.104-2.709-0.129-3.968-0.056
	c-1.114,0.154-2.284,0.099-3.469,0c-1.266-0.11-2.58,0.056-3.908-0.062c-0.996-0.085-2.016,0.068-3,0
	c-0.129,0.129-0.51-0.006-0.645,0.117c-0.072-0.087-0.35-0.087-0.441,0h-0.487c-0.414,0.159-0.886-0.043-1.08-0.246
	c2.146-0.289,4.637-0.231,7.002-0.319c0.063-0.189,0.358-0.24,0.463-0.429c0.056-0.081,0.024-0.202,0.056-0.313
	c0.024-0.037,0.067-0.061,0.08-0.104c0.081-0.167,0.057-0.381,0.186-0.528c-0.018-0.074-0.078-0.098-0.064-0.215
	c0.102-0.423,0.064-0.969,0.203-1.349c0.049-0.099-0.098-0.056-0.049-0.161c0.193-0.405-0.168-0.993-0.09-1.3
	c-0.281-0.601-0.576-1.215-0.832-1.828c-0.371-0.239-0.729-0.553-1.328-0.608c-0.504-0.054-1.061,0.043-1.646,0
	c-1.283,0.104-2.889,0.056-4.059,0.167c-0.088,0.031-0.119,0.061-0.211,0.079c-1.363,0.198-3.158-0.047-4.668,0.05
	c-0.049,0-0.016,0.062-0.08,0.056c-0.488-0.037-0.799,0.086-1.287,0.056c-0.662,0.079-1.355,0.134-2.098,0.146
	c-0.371,0.074-0.809,0.099-1.258,0.111c-0.258,0.042-0.381,0.263-0.638,0.294c-0.36,0.031-0.928-0.398-1.432-0.134
	c-0.029,0.11-0.05,0.3-0.242,0.392c-0.032-0.11,0.074-0.079,0.056-0.153c-0.134,0.006-0.138,0.123-0.188,0.208
	c0.069,0.038,0.055-0.123,0.106-0.024c0,0.099-0.104,0.171-0.146,0.08c-0.104,0.043,0.067,0.043,0.039,0.103
	c-0.179,0.173-0.347,0.357-0.527,0.51c0.033,0.472-0.051,0.877,0,1.295c0.033,0.3,0.218,0.57,0.201,0.871
	c-0.246,0.473-0.508,0.92-0.739,1.405c-0.474,0.417-0.828,0.97-1.273,1.43c-0.404,0.116-0.982,0.079-1.217,0.343
	c-0.269,0.024-0.42,0.117-0.535,0.271c-0.31-0.012-0.547,0.146-0.848,0.16c-0.562,0.012-1.13-0.258-1.742-0.312
	c-0.455-0.043-0.857,0.006-1.353,0.043c-0.056,0.018,0,0.134-0.112,0.109c-0.095,0.019-0.13-0.024-0.168-0.055
	c-0.439,0.227-0.88,0.213-1.142,0.533c-0.045,0.062-0.054,0.165-0.117,0.232c-0.08,0.093-0.231,0.152-0.269,0.215
	c-0.014,0.031,0.029,0.099,0,0.135c-0.022,0.049-0.112,0.03-0.139,0.073c-0.051,0.073,0,0.215-0.113,0.239
	c0.107,0.099-0.049,0.123,0,0.301c-0.225,0.02-0.14,0.324-0.271,0.417c0,0.516-0.026,1.062,0.271,1.295
	c-0.049,0.349,0.104,0.526,0.113,0.828c0.42,0.417,0.734,0.926,1.047,1.454c0.558,0.265,1.254,0.41,1.83,0.669
	c0.576-0.062,1.103,0.147,1.58,0c1.047,0.055,1.492-0.431,2.396-0.517c0.428-0.228,0.734-0.57,1.105-0.877h0.123
	c0.004-0.08,0.098-0.087,0.147-0.154c1.075-0.602,2.092-1.282,3.139-1.933h0.113c0.211-0.233,0.557-0.375,0.793-0.577
	c0.017-0.043-0.039-0.134,0.024-0.134c1.174-0.725,2.183-1.596,4.025-1.706v0.11c0.127,0.042,0-0.154,0.094-0.154
	c0.023,0.068,0.168,0.032,0.229,0.081c-0.095,0.135-0.011,0.146,0,0.307c-0.039,0.024-0.039,0.098-0.119,0.092
	c-0.078,0.453-0.291,0.798-0.621,1.024v0.324c-0.229,0.13-0.006,0.603-0.104,0.743c0.104,0.179,0.228,0.35,0.246,0.607
	c0.728,0.547,1.412,1.394,2.783,1.16c0.324,0.043,0.672,0.055,1.047,0c0.06,0,0.084-0.087,0.15-0.104
	c0.021,0,0.029,0.056,0.102,0.05c0.133,0,0.407-0.087,0.508,0c0.095-0.05,0.252-0.05,0.41-0.05v0.805
	c-0.006,0.043-0.104,0.019-0.084,0.099c-0.052,0.435-0.231,0.748-0.326,1.142c-0.28,0.319-0.571,0.633-0.812,0.981
	c-0.932,0.649-1.857,1.289-2.797,1.934c-0.023,0.023-0.094-0.02-0.119,0c-0.104,0.061-0.182,0.201-0.291,0.264
	c-0.201,0.122-0.369,0.221-0.57,0.289c-0.242,0.393-0.492,0.797-0.709,1.201c0.07,0.693-0.203,1.081-0.271,1.676
	c0.099,0.068,0.06,0.258,0.067,0.416c0.123,0.125,0.138,0.346,0.138,0.572c0.168,0.484,0.346,0.938,0.582,1.355
	c0.237,0.129,0.364,0.324,0.539,0.51c0.319,0.146,0.637,0.312,0.942,0.479c0.604-0.086,1.133,0.146,1.762,0.043
	c0.359-0.043,0.699-0.234,1.07-0.312c0.195-0.045,0.389-0.02,0.588-0.045c0.361-0.064,0.729-0.184,1.101-0.221
	c0.211-0.018,0.414,0.021,0.621,0c0.151-0.018,0.312-0.084,0.465-0.109c0.817-0.092,1.612-0.215,2.517-0.186
	c0.094,0.031,0.016-0.084,0.118-0.041c0.783,0.092,1.959,0.041,3.078,0.041c0.957,0,2.313,0.043,3.07-0.041
	c1.416,0.166,2.93,0.152,4.567,0.209c0.101-0.025,0.09-0.143,0.209-0.143c0.168,0.148,0.414,0.191,0.648,0.094
	c0.258,0.133,0.779,0.049,1.186,0.066c0.146,0.227-0.035,0.754,0.146,0.934c-0.035,0.381,0.109,0.613,0.123,0.951
	c0.213,0.252,0.186,0.777,0.322,1.061c0.008,0.049,0.113,0.08,0.143,0.135c0.039,0.068,0.023,0.166,0.061,0.238
	c0.033,0.105,0.158,0.148,0.203,0.234c0.023,0.043-0.018,0.104,0,0.135c0.072,0.195,0.284,0.301,0.402,0.479
	c0.466,0.117,0.632,0.521,1.164,0.564c0.207,0.35,0.992,0.203,1.496,0.289c0.354-0.309,0.771-0.553,1.158-0.822
	c-0.064-0.123,0.061-0.398,0.297-0.398c0.074-0.312,0.035-0.719,0.312-0.828c0.033-0.266-0.061-0.639,0.066-0.814
	c-0.053-0.18-0.072-0.373,0-0.59c-0.028-0.553,0-1.742-0.117-2.59c0.064-0.027,0.068-0.104,0.051-0.188
	c-0.158-0.674-0.051-1.389-0.168-2.1c-0.012-0.029-0.068-0.062-0.085-0.104c-0.054-0.152,0.017-0.395,0-0.576
	c-0.116-1.074-0.112-2.189-0.179-3.18c0.035-0.066,0.084-0.127,0.062-0.239c0.004-0.072-0.188,0.03-0.147-0.085
	c0.028-0.1,0.108-0.148,0.147-0.239c0.032-0.099-0.119-0.043-0.09-0.153c0.062-0.375,0.006-0.834,0.027-1.24
	c-0.01-0.055-0.111-0.023-0.088-0.11c-0.074-0.699,0.207-1.099,0.207-1.729c0.172-0.062,0.217-0.221,0.297-0.362
	c0.479-0.265,0.582-0.865,0.898-1.269c0.049-0.468,0.071-1.123,0.059-1.774C199.411,19.801,199.081,19.627,198.855,19.363"/>
<path fill="#FFFFFF" d="M198.183,10.252c-0.134,0.185-0.232,0.413-0.351,0.614c-0.22,0.031-0.354,0.135-0.371,0.343
	c-0.084,0.074-0.271,0.024-0.218,0.208c-0.196,0.043-0.319,0.167-0.454,0.27c-0.906,0.208-1.484-0.227-1.992-0.539
	c-0.75-0.252-1.58-0.431-2.246-0.761c-0.021-0.105,0.108-0.062,0.062-0.184c0.147-0.031,0.178,0.048,0.295,0.048
	c1.16-0.202,2.551-0.287,3.727-0.263c0.023,0,0.057-0.043,0.1-0.055c0.42-0.074,1.002,0.012,1.451-0.019L198.183,10.252
	L198.183,10.252z M193.139,4.479c1.052-0.485,2.699-0.479,4.104-0.349c0.033,0.097,0.152,0.104,0.218,0.172
	c-0.049,0.798,0.094,1.455,0.056,2.27c-0.628,0.227-1.384,0.202-2.138,0.326c-0.558,0.08-1.44,0.08-2.187,0.067
	C193.088,6.215,193.156,5.309,193.139,4.479 M205.846,7.675c-0.778-0.337-1.489-0.755-2.368-1c0.059-1.448,0-2.792-0.519-3.712
	c0-0.056,0.112-0.012,0.084-0.105c-0.011-0.128-0.101-0.189-0.084-0.349c-0.188-0.179-0.431-0.258-0.718-0.394
	c-0.266-0.141-0.551-0.405-0.805-0.534c-0.117-0.061-0.289-0.067-0.436-0.135c-0.062-0.025-0.234-0.203-0.273-0.208
	c-0.061-0.044-0.197-0.007-0.242-0.057c-0.045-0.018-0.035-0.09-0.063-0.098c-0.045-0.024-0.108,0.007-0.151,0
	c-0.095-0.03-0.197-0.141-0.283-0.167c-0.531-0.159-1.158-0.227-1.484,0.137c-0.043,0.288-0.182,0.466-0.182,0.796
	c-0.164,0.111-0.271,0.27-0.43,0.369c-1.322,0.031-2.621,0.069-3.865,0.19c-0.39-0.146-1.199,0.092-1.213-0.405
	c-0.129,0-0.183-0.049-0.267-0.08c-0.521-0.65-2.285-0.46-3.326-0.405c-0.084,0.159-0.143,0.319-0.235,0.467V4.52
	c0.02,0.049,0.059,0.073,0.094,0.11c-0.006,0.042-0.1,0.023-0.061,0.11c0.135,0.153,0.041,0.503,0.231,0.608
	c-0.095,0.618,0.034,1.41,0.147,2.036c-0.07,0.013-0.039,0.11-0.088,0.129c-0.742,0.141-1.311,0.417-2.104,0.503
	c-0.508,0.086-0.854,0.326-1.283,0.485c-0.045,0.098,0.084,0.049,0.057,0.128c-0.084,0.005-0.123,0.062-0.197,0.086
	c-0.133,0.454-0.739,0.522-0.705,1.129c-0.006,0.062-0.108,0.024-0.079,0.105v0.374c0.125,0.177,0.196,0.399,0.252,0.638
	c0.276,0.186,0.43,0.484,0.729,0.645c0.336,0,0.598,0.091,0.879,0.147c0.094,0.038,0.021-0.086,0.123-0.049
	c-0.039,0.087,0.084,0.025,0.06,0.105c0.399,0.049,0.728,0.171,1.075,0.27c0.687-0.148,1.459-0.215,1.898-0.583
	c0.242-0.019,0.52,0.031,0.633,0.111c0.262,0.147,0.447,0.355,0.705,0.552c0.168,0.123,0.398,0.337,0.553,0.418
	c0.392,0.221,0.851,0.227,1.104,0.423c-0.098,0.399-0.773,0.271-1.281,0.3c-0.555-0.184-1.17-0.3-1.891-0.325
	c-0.479-0.22-1.59-0.32-2.34-0.208c-0.562,0.078-0.938,0.422-1.312,0.532c-0.18,0.161-0.316,0.443-0.404,0.658
	c-0.035,0.104-0.157,0.178-0.174,0.256c-0.094,0.437,0.094,0.786,0.119,1.204c0.297,0.645,0.531,1.35,1.051,1.804h0.14
	c0,0.085,0.123,0.061,0.123,0.16c0.163-0.031,0.163,0.092,0.34,0.05c-0.015,0.065,0.062,0.053,0.062,0.103
	c0.715,0.184,1.364,0.424,2.008,0.656c0.766,0.02,1.342-0.134,2.076-0.166c0.184-0.061,0.412-0.084,0.672-0.091
	c0.672-0.22,1.524-0.276,1.949-0.711h0.145c0.014-0.056,0.023-0.093,0.064-0.111c0.418-0.043,0.557-0.343,0.901-0.448
	c0.063,0,0.021,0.061,0.088,0.061c0.315-0.22,0.673-0.393,1.076-0.521c0.14,0.038,0.196,0.154,0.319,0.068
	c0.101,0.177,0.246,0.306,0.263,0.545c0.101,0.105,0.207,0.154,0.274,0.252c0.062,0.092,0.101,0.215,0.164,0.276
	c0.201,0.207,0.447,0.423,0.609,0.613c0.064,0.062,0.064,0.172,0.119,0.231c0.029,0.05,0.113,0.05,0.148,0.087
	c0.039,0.043,0.063,0.165,0.117,0.208c0.045,0.05,0.112,0.043,0.145,0.093c0.014,0.006-0.01,0.057-0.01,0.057
	c0.201,0.221,0.512,0.447,0.586,0.674c0.297,0.179,0.449,0.467,0.588,0.773c0.191,0.135,0.344,0.301,0.475,0.496
	c0.156-0.023,0.146,0.1,0.201,0.161c0.309,0.159,0.607,0.337,0.898,0.502c1.727,0.208,2.033-0.864,3.088-1.264
	c0.168-0.326,0.594-0.429,0.85-0.669v-0.152c0.074,0,0.119,0,0.145-0.037c0.035-0.134-0.039-0.184-0.074-0.256v-0.344
	c-0.155-0.233-0.176-0.588-0.536-0.633c-0.568-0.49-1.339-0.792-1.955-1.22h-0.142c0-0.098-0.113-0.074-0.113-0.166
	c-0.045-0.012-0.148,0.031-0.139-0.024c-0.631-0.817-1.658-1.252-2.422-1.927c-0.06-0.159-0.119-0.308-0.185-0.46
	c0.063-0.115,0.133-0.239,0.185-0.399c0.305-0.16,0.403-0.54,0.711-0.711c0.043-0.148,0.104-0.271,0.274-0.289
	c0.024-0.239,0.274-0.276,0.256-0.558c0.192-0.152,0.375-0.306,0.388-0.632c0.084-0.037,0.106-0.122,0.084-0.24
	c-0.209-0.33-0.437-0.65-0.672-0.951c0.02-0.123,0.112-0.152,0.2-0.189c0.213,0.086,0.388,0.22,0.707,0.208
	c0.774,0.596,2.149,0.239,2.976,0.055c0.139-0.196,0.416-0.282,0.385-0.637c0.129-0.105,0.139-0.375,0.252-0.584
	c0.055-0.085,0.168-0.134,0.207-0.208C205.945,8.608,205.786,8.172,205.846,7.675"/>
<path fill="#FFFFFF" d="M122.322,12.449v0.153c-0.082,0.019-0.058-0.048-0.115-0.054c-0.271,0.221-0.559,0.424-0.904,0.557
	c-0.133,0.019-0.344-0.037-0.379,0.05c-0.166,0.024-0.447-0.05-0.527,0.062c-0.51-0.056-0.908,0.012-1.432-0.062
	c-0.414-0.05-0.711-0.278-1.096-0.283c0-0.251-0.494-0.066-0.475-0.324c-0.056,0-0.078,0.025-0.095,0.054
	c-0.69-0.539-1.724-0.766-2.127-1.564c-0.209-0.129-0.301-0.362-0.476-0.535c0.05-0.246-0.2-0.417-0.049-0.601
	c-0.115-0.528-0.106-1.092,0.174-1.411c0.029-0.031,0.115-0.038,0.142-0.074c0.065-0.085,0.065-0.215,0.115-0.294
	c0.129-0.159,0.329-0.239,0.354-0.424c0.561-0.141,0.795-0.552,1.549-0.508c0.129-0.13,0.351-0.013,0.435,0
	c0.267,0.054,0.639,0.03,0.879,0.085c0.209,0.055,0.431,0.183,0.668,0.27c0.062,0.012,0.144-0.019,0.209,0
	c0.09,0.012,0.181,0.129,0.258,0.153c0.062,0.019,0.147-0.023,0.207,0c0.089,0.031,0.175,0.135,0.259,0.167
	c0.123,0.018,0.233-0.037,0.271,0.098c0.289-0.032,0.312,0.189,0.575,0.189c0.431,0.4,1.037,0.639,1.431,1.087h0.147
	c0.252,0.312,0.496,0.644,0.791,0.926c0.092,0.3,0,0.774,0.101,1.055c-0.021,0.263-0.179,0.393-0.154,0.687
	c-0.165,0.056-0.19,0.229-0.389,0.252C122.56,12.266,122.531,12.437,122.322,12.449"/>
<path fill="#FFFFFF" d="M143.029,5.607c-0.037,0.185,0.24,0.081,0.197,0.258c0.532,0.104,0.438,0.755,0.735,1.062
	c0.012,0.11-0.037,0.264,0.062,0.293c-0.09,0.67,0.344,1.312-0.215,1.621c-0.068,0.386-0.281,0.638-0.613,0.797
	c-0.019,0.106-0.142,0.112-0.166,0.202c-0.104-0.018-0.127,0.037-0.176,0.062c-0.732,0.559-1.443,1.153-2.191,1.694
	c-0.564,0.607-1.309,1.036-1.945,1.564h-0.124c-0.045,0.056-0.129,0.068-0.147,0.153h-0.123c-0.252,0.208-0.514,0.412-0.9,0.509
	c-0.057,0.031-0.092,0.086-0.109,0.16c-0.834,0.394-1.604,0.841-2.512,1.16c-0.17,0.197-0.471,0.269-0.605,0.484
	c-0.301,0.104-0.576,0.221-0.791,0.4c-0.215,0.055-0.403,0.122-0.526,0.264c-0.547,0.141-0.914,0.436-1.422,0.601
	c-0.259,0.227-0.695,0.271-0.933,0.516c-0.645,0.216-1.149,0.54-1.787,0.761c-0.309,0.043-0.553,0.141-0.778,0.27
	c-0.582,0.123-1.111,0.295-1.608,0.497h-0.257c-0.028,0.05-0.101,0.037-0.101,0.104c-0.646,0.062-0.952,0.404-1.604,0.455
	c-0.746,0.379-1.725,0.533-2.514,0.877h-0.26c-0.146,0.207-0.672,0.232-1.047,0.344c-0.371,0.108-1.027,0.293-0.556,0.662
	c0.923,0.121,1.714,0.441,2.714,0.606c1.502,0.252,2.942,0.515,4.319,0.877c-0.045,0.111,0.158-0.006,0.106,0.104
	c0.314,0.043,0.642,0.129,0.935,0.209c0.283,0.08,0.578,0.104,0.799,0.264c2.111,0.541,3.834,1.424,6.147,1.773
	c0.025,0.172,0.296,0.147,0.496,0.246c0.142,0.066,0.338,0.227,0.586,0.264c0.193,0.031,0.363-0.006,0.537,0.049
	c0.123,0.043,0.215,0.129,0.338,0.159c0.138,0.043,0.302,0.019,0.396,0.062c0.059,0.006,0.074,0.086,0.125,0.094
	c0.283,0.078,0.582,0.104,0.873,0.195c0.312,0.092,0.637,0.245,0.957,0.318c0.229,0.05,0.365,0.111,0.562,0.154
	c0.117,0.024,0.227,0,0.346,0.024c0.061,0.019,0.102,0.085,0.158,0.11c0.158,0.062,0.395,0.049,0.563,0.111
	c0.066,0.024,0.097,0.084,0.16,0.098c0.179,0.062,0.396,0.043,0.578,0.117c0.207,0.062,0.61,0.201,0.875,0.258
	c0.373,0.072,0.748,0.097,1.11,0.184c0.595,0.135,1.177,0.314,1.797,0.43c0.007,0.049,0.025,0.08,0.062,0.104
	c0.113,0.036,0.063-0.08,0.147-0.056c1.185,0.418,2.552,0.644,3.562,1.222c0.162-0.042,0.158,0.085,0.314,0.054
	c-0.029,0.081,0.1,0.025,0.061,0.1c0.682,0.189,1.215,0.498,1.842,0.717c0.627-0.055,0.857,0.361,1.254,0.613
	c0.023,0.006,0.078-0.014,0.119,0c0.26,0.129,0.502,0.361,0.719,0.44c-0.032,0.123,0.09,0.087,0.062,0.187
	c0.028,0.061,0.117,0.061,0.144,0.117c0.035,0.422,0,0.803-0.056,1.172c0.029,0.078-0.073,0.049-0.088,0.092
	c0.117,0.293-0.174,0.381-0.252,0.539c-0.021,0.018,0.011,0.08,0,0.098c-0.021,0.025-0.112,0.037-0.112,0.037
	c-0.021,0.045,0.014,0.104,0,0.123c-0.021,0.018-0.084-0.006-0.091,0c-0.116,0.178-0.088,0.361-0.116,0.662
	c-0.074,0.541-0.521,0.994-0.854,1.332c-0.037,0.354-0.4,0.424-0.466,0.76c-0.182-0.029-0.118,0.162-0.262,0.162v0.133
	c-0.268,0.154-0.488,0.529-0.846,0.719c-0.072,0.043-0.252,0.055-0.389,0.104c-0.238,0.104-0.574,0.295-0.811,0.368
	c-0.337,0.117-0.677,0.134-1.046,0c-0.325,0.281-0.998,0.123-1.373,0c-0.368-0.123-0.788-0.19-0.907-0.368
	c-0.488-0.093-0.777-0.351-1.248-0.459c0.035-0.08-0.095-0.013-0.058-0.099c-0.221-0.045-0.43-0.082-0.532-0.24
	c-0.312,0-0.363-0.258-0.668-0.264c0.012-0.093-0.123-0.068-0.119-0.166h-0.138c-0.315-0.222-0.644-0.425-1.051-0.548
	c-0.052-0.108-0.181-0.141-0.328-0.164c0.037-0.075-0.103-0.014-0.053-0.1c-0.505-0.109-0.779-0.394-1.259-0.509
	c-0.504-0.362-1.215-0.547-1.688-0.922h-0.256c-0.326-0.151-0.754-0.188-0.978-0.431c-0.791-0.163-1.354-0.545-2.062-0.803
	c0-0.08-0.123-0.062-0.114-0.147c-0.78-0.246-1.278-0.754-2.043-1c-0.587-0.459-1.388-0.699-1.96-1.152
	c-0.408-0.067-0.588-0.355-0.986-0.441c0.006-0.08-0.104-0.057-0.054-0.166H130.3c0.029-0.08-0.098-0.02-0.061-0.098
	c-0.389-0.062-0.56-0.326-0.928-0.4c-0.244-0.281-0.748-0.318-0.963-0.619c-0.523-0.013-0.638-0.38-1.115-0.447
	c-0.119-0.049-0.209-0.117-0.291-0.209h-0.232c-0.184-0.195-0.576-0.207-0.729-0.422c-0.856-0.233-1.41-0.744-2.244-1.008
	c-0.627-0.509-1.627-0.681-2.418-1.031c-0.289,0.024-0.532-0.146-0.784-0.189c-0.212-0.037-0.47,0.023-0.591-0.166
	c-0.209,0.02-0.44,0.02-0.521-0.104c-0.094-0.031-0.021,0.092-0.108,0.062c-0.088-0.129-0.24-0.062-0.357-0.11
	c-0.188-0.066-0.367-0.209-0.584-0.257c-0.805-0.221-1.729-0.187-2.451-0.511c-0.381,0.068-1.229,0.135-1.516-0.055
	c-0.045,0.037-0.082,0.074-0.123,0.111c-0.728,0.078-1.498,0.141-2.203,0.258c-0.067,0.01-0.049-0.043-0.1-0.043
	c-0.16,0-0.164,0.142-0.367,0.098c-0.476,0.277-0.68,0.754-1.234,0.958c-0.385,0.024-0.68,0.116-0.979,0.208
	c-0.125,0.043-0.092-0.053-0.179-0.049c-0.052,0.006-0.03,0.067-0.036,0.11c-0.52,0.007-0.973,0.351-1.432,0.233
	c-0.428,0.337-1.562,0.281-2.092,0.208c-0.104,0.086-0.242,0.129-0.469,0.11c-0.104-0.099-0.135-0.25-0.314-0.264v-0.135
	c-0.334-0.11-0.32-0.539-0.328-0.944c-0.088-0.024-0.049-0.141-0.146-0.141c-0.024-0.313,0.035-0.535,0.06-0.798
	c-0.028-0.092,0.068-0.049,0.088-0.104c0.068-0.35,0.025-0.661,0.179-0.958c0.024-0.055,0.123-0.066,0.149-0.121
	c0.045-0.136,0.008-0.24,0.054-0.406c0.018-0.067,0.127-0.11,0.141-0.153c0.043-0.111,0.012-0.259,0.062-0.38
	c0.13-0.264,0.562-0.436,0.582-0.848c0.158,0.086,0.246-0.043,0.207-0.203c0.091-0.018,0.113-0.098,0.201-0.115v-0.258
	c0.326-0.271,0.676-0.498,1.278-0.504c0.074-0.123,0.158-0.11,0.33-0.166c0.067-0.024,0.095-0.116,0.173-0.153
	c0.27-0.142,0.657-0.185,1.141-0.19c0.039,0,0.021-0.062,0.021-0.092c0.099-0.029,0.033,0.079,0.151,0.042
	c0.819-0.188,2.25,0.154,2.825-0.264c0.646-0.03,1.434,0.081,1.906-0.109c0.078-0.013,0.078,0.05,0.137,0.05
	c0.27-0.197,0.766-0.168,1.105-0.289c0.43-0.013,0.815-0.209,1.26-0.259c0.207-0.03,0.453,0.025,0.656,0
	c0.369-0.062,0.877-0.373,1.295-0.344c0.422-0.165,0.856-0.293,1.312-0.423c0.857-0.251,1.502-0.705,2.308-1.012
	c0.151-0.117,0.297-0.215,0.522-0.264c0.336-0.257,0.861-0.344,1.188-0.602c0.476-0.122,0.75-0.405,1.218-0.51
	c0.032-0.042,0.1-0.035,0.096-0.116c0.468-0.099,0.754-0.386,1.222-0.503c0.03-0.037,0.104-0.037,0.092-0.098h0.117
	c0.024-0.03,0.092-0.03,0.092-0.11c0.422-0.141,0.891-0.264,1.188-0.528c0.521-0.123,0.779-0.473,1.25-0.632
	c0.843-0.577,1.771-1.024,2.621-1.545c0.138-0.068,0.269-0.197,0.388-0.264c0.024-0.006,0.073,0.025,0.092,0
	c0.074-0.043,0.074-0.11,0.135-0.179c0.113-0.097,0.26-0.134,0.357-0.208c0.271-0.209,0.526-0.454,0.813-0.668
	c0.146-0.11,0.276-0.19,0.389-0.312c0.195-0.233,0.546-0.448,0.834-0.7c0.859-0.681,1.729-1.37,2.604-2.062
	c0.074-0.061,0.17-0.079,0.236-0.153c0.104-0.135,0.291-0.289,0.469-0.399c0.041-0.012,0.018-0.074,0.024-0.111
	c0.146-0.092,0.314-0.171,0.386-0.343c0.141-0.112,0.36-0.167,0.397-0.369h0.117V6.191c0.461-0.332,0.618-0.933,1.196-1.135
	c1.146-0.019,2.24-0.012,2.732,0.552L143.029,5.607L143.029,5.607z"/>
<path fill="#FFFFFF" d="M129.523,4.074c0.271,0.283,0.727,0.417,1.039,0.668c-0.013,0.16,0.17,0.271,0.215,0.441
	c0.028,0.129-0.021,0.251,0.055,0.345c0.145,0.184,0.324,0.392,0.465,0.526c-0.012,0.356,0.16,0.546,0.117,0.933
	c-0.018,0.086,0.104,0.037,0.094,0.104v1.854c0.023,0.092-0.072,0.055-0.094,0.11v0.233c-0.066,0.141-0.074,0.337-0.117,0.502
	c-0.393,0.339-0.439,0.977-0.938,1.228c0.049,0.123-0.084,0.086-0.047,0.203c-0.244,0.196-0.469,0.295-0.812,0.497
	c-0.674,0.41-1.221,0.883-2.256,0.484c-0.242-0.324-0.643-0.522-0.73-1c-0.143-0.159-0.268-0.337-0.26-0.638
	c-0.164-0.324-0.164-0.803-0.264-1.197c-0.582-0.725-0.676-1.89-1.135-2.729V5.367c-0.021-0.079,0.073-0.055,0.086-0.11
	c-0.025-0.436,0.233-0.632,0.332-0.976C126.137,3.527,128.226,3.772,129.523,4.074"/>
<path opacity="0.65" fill="#FFFFFF" enable-background="new    " d="M5.136,56.309c0-2.574,2.66-3.883,5.023-3.883
	c0.865,0,1.771,0.084,2.596,0.402c0.021,0.547,0.106,1.391,0.106,1.729c0,0.254-0.148,0.297-0.296,0.297
	c-0.211,0-0.255-0.17-0.296-0.359c-0.189-0.908-1.646-1.203-2.406-1.203c-1.351,0-2.808,0.738-2.808,2.258
	c0,3.334,6.882,1.752,6.882,6.859c0,0.695-0.613,4.221-5.341,4.221c-1.16,0-2.362-0.211-3.462-0.609
	c-0.21-1.203-0.357-1.729-0.357-1.984c0-0.127,0-0.357,0.315-0.357c0.253,0,0.296,0.211,0.358,0.422
	c0.401,1.162,2.194,1.668,3.271,1.668c1.625,0,3.292-0.865,3.292-2.66C12.017,59.518,5.136,61.143,5.136,56.309"/>
<path opacity="0.65" fill="#FFFFFF" enable-background="new    " d="M29.855,60.318c0-5.445-3.019-7.133-4.959-7.133
	c-0.654,0-4.157,0.148-4.157,5.551c0,5.443,3.019,7.133,4.958,7.133C26.353,65.869,29.855,65.721,29.855,60.318 M18.29,59.877
	c0-4.201,2.893-7.451,7.219-7.451c4.113,0,6.794,2.66,6.794,6.754c0,4.199-2.891,7.449-7.217,7.449
	C20.969,66.629,18.29,63.969,18.29,59.877"/>
<path opacity="0.65" fill="#FFFFFF" enable-background="new    " d="M41.281,53.523h-0.949c-0.273,0-0.315,0.127-0.315,0.338v7.09
	c0,1.668,0.126,4.707,3.565,4.707c0.949,0,4.052-0.211,4.052-4.453v-3.291c0-1.162,0-2.682-0.146-3.691
	c-0.105-0.656-0.254-0.697-0.822-0.697H45.82V52.83h3.946v0.695h-0.592c-0.548,0-0.653,0-0.653,0.271v7.473
	c0,3.883-2.827,5.359-5.509,5.359c-4.306,0-5.444-2.32-5.444-4.621v-5.613c0-2.787-0.126-2.871-0.803-2.871h-0.948v-0.697h5.465
	L41.281,53.523L41.281,53.523z"/>
<path opacity="0.65" fill="#FFFFFF" enable-background="new    " d="M65.87,62.387v-4.475c0-1.16,0-2.682-0.146-3.693
	c-0.105-0.654-0.255-0.695-0.823-0.695h-0.844v-0.695h3.945v0.695h-0.592c-0.549,0-0.653,0-0.653,0.273v12.389
	c0,0.146-0.062,0.252-0.212,0.252c-0.168,0-0.295-0.168-0.633-0.547l-9.328-10.594v5.846c0,1.16,0,2.68,0.147,3.693
	c0.104,0.652,0.253,0.693,0.822,0.693h0.846v0.695h-3.947v-0.695h0.592c0.548,0,0.653,0,0.653-0.273v-9.602
	c0-1.182-0.464-2.131-1.287-2.131H53.8v-0.695h3.65L65.87,62.387z"/>
<path opacity="0.65" fill="#FFFFFF" enable-background="new    " d="M77.573,53.65c-0.991,0-1.097,0-1.097,0.295v6.9
	c0,4.496,0.084,4.559,0.801,4.559c3.42,0.043,5.91-1.877,5.91-5.297C83.187,55.865,80.57,53.65,77.573,53.65 M72.76,65.531h0.949
	c0.275,0,0.316-0.127,0.316-0.338v-8.799c0-2.787-0.126-2.871-0.801-2.871h-0.951v-0.697h6.479c4.791,0,7.07,3.104,7.07,6.396
	c0,2.809-1.605,7.006-7.282,7.006h-5.782L72.76,65.531L72.76,65.531z"/>
<path opacity="0.65" fill="#FFFFFF" enable-background="new    " d="M110.213,60.318c0-5.445-3.021-7.133-4.959-7.133
	c-0.656,0-4.159,0.148-4.159,5.551c0,5.443,3.018,7.133,4.958,7.133C106.71,65.869,110.213,65.721,110.213,60.318 M98.649,59.877
	c0-4.201,2.892-7.451,7.218-7.451c4.115,0,6.795,2.66,6.795,6.754c0,4.199-2.891,7.449-7.217,7.449
	C101.327,66.629,98.649,63.969,98.649,59.877"/>
<path opacity="0.65" fill="#FFFFFF" enable-background="new    " d="M116.853,66.227v-0.695h0.95c0.271,0,0.315-0.127,0.315-0.338
	v-8.801c0-2.785-0.129-2.869-0.803-2.869h-0.951v-0.697h10.343c-0.231,2.006-0.254,2.152-0.466,2.152
	c-0.272,0-0.313-0.168-0.336-0.463c-0.022-0.359-1.142-0.865-3.545-0.865h-1.521c-0.211,0-0.272,0.062-0.272,0.273v4.621h1.963
	c2.236,0,2.322-0.252,2.322-0.865v-0.738h0.633v3.715h-0.633v-0.76c0-0.359-0.086-0.59-2.322-0.59h-1.963v3.354
	c0,2.787,0.125,2.871,0.801,2.871h0.949v0.695H116.853z"/>
<path opacity="0.65" fill="#FFFFFF" enable-background="new    " d="M143.437,59.369v3.291c0,2.787,0.129,2.871,0.803,2.871h0.949
	v0.695h-5.465v-0.695h0.948c0.272,0,0.315-0.127,0.315-0.338v-8.801c0-2.785-0.125-2.869-0.801-2.869h-0.951v-0.697h5.468v0.697
	h-0.949c-0.274,0-0.317,0.127-0.317,0.338v4.684h5.953v-2.15c0-2.785-0.13-2.869-0.804-2.869h-0.949V52.83h5.466v0.695h-0.949
	c-0.273,0-0.316,0.127-0.316,0.338v8.801c0,2.785,0.125,2.869,0.801,2.869h0.951v0.695h-5.465v-0.695h0.949
	c0.272,0,0.316-0.127,0.316-0.338v-5.822h-5.953V59.369L143.437,59.369z"/>
<path opacity="0.65" fill="#FFFFFF" enable-background="new    " d="M168.724,60.318c0-5.445-3.019-7.133-4.96-7.133
	c-0.653,0-4.157,0.148-4.157,5.551c0,5.443,3.018,7.133,4.961,7.133C165.219,65.869,168.724,65.721,168.724,60.318 M157.159,59.877
	c0-4.201,2.891-7.451,7.217-7.451c4.115,0,6.797,2.66,6.797,6.754c0,4.199-2.891,7.449-7.219,7.449
	C159.838,66.629,157.159,63.969,157.159,59.877"/>
<path opacity="0.65" fill="#FFFFFF" enable-background="new    " d="M179.079,59.178c0.314,0.146,0.844,0.23,1.285,0.23
	c1.604,0,2.787-1.012,2.787-2.656c0-1.16-0.719-3.104-3.229-3.104h-0.569c-0.211,0-0.273,0.062-0.273,0.271V59.178z M179.079,62.662
	c0,2.785,0.125,2.869,0.799,2.869h0.951v0.697h-5.465v-0.697h0.947c0.274,0,0.317-0.127,0.317-0.338v-8.799
	c0-2.787-0.127-2.871-0.804-2.871h-0.948v-0.697h6.078c3.819,0,4.644,2.195,4.644,3.65c0,2.176-2.175,3.695-4.664,3.695
	c-0.611,0-1.244-0.086-1.855-0.275V62.662L179.079,62.662z"/>
<path opacity="0.65" fill="#FFFFFF" enable-background="new    " d="M189.469,65.531h0.949c0.272,0,0.315-0.127,0.315-0.338v-8.799
	c0-2.787-0.129-2.871-0.805-2.871h-0.947v-0.697h10.34c-0.231,2.006-0.254,2.152-0.463,2.152c-0.274,0-0.317-0.168-0.338-0.463
	c-0.021-0.359-1.141-0.865-3.547-0.865h-1.521c-0.211,0-0.273,0.062-0.273,0.273v4.621h1.963c2.238,0,2.32-0.252,2.32-0.863v-0.74
	h0.637v3.715h-0.637v-0.76c0-0.359-0.082-0.592-2.32-0.592h-1.963v1.541c0,4.496,0.086,4.559,0.805,4.559h0.734
	c1.143,0,4.014,0,4.666-1.16c0.084-0.146,0.125-0.271,0.314-0.271c0.147,0,0.234,0.104,0.234,0.252c0,0.188-0.105,0.506-0.55,2.004
	h-9.918v-0.696L189.469,65.531L189.469,65.531z"/>
</svg>
