<svg width="134" height="230" viewBox="0 0 134 230" fill="none" xmlns="http://www.w3.org/2000/svg">
<path fill-rule="evenodd" clip-rule="evenodd" d="M87.8153 5.61285C87.0369 6.20811 86.3958 6.11653 85.8464 5.24654C85.2053 4.28497 85.2969 3.50655 86.1669 2.95708C86.579 2.54498 87.5864 1.81235 89.2348 0.804993C90.5627 -0.156579 91.57 -0.248155 92.2569 0.484471C92.9895 1.76657 92.8979 2.68235 91.9821 3.18603C91.0208 3.68958 89.6476 4.51348 87.8168 5.61199L87.8162 5.61233L87.8153 5.61285ZM78.3369 48.5631C77.0548 51.8141 76.5512 55.8893 76.2306 59.3693C76.1849 60.0104 77.1922 60.2393 77.3754 59.5983C77.5938 58.7245 77.8295 57.8364 78.0674 56.9403C78.7769 54.2674 79.5051 51.5241 79.848 48.8836C79.9853 47.922 78.6575 47.7847 78.3369 48.5631ZM91.6158 65.5966C93.2184 62.483 95.1874 58.9114 97.5684 56.3472C98.1179 55.752 99.3084 56.393 98.8505 57.1714C97.487 59.6472 95.7018 62.0386 93.9796 64.3457L93.9795 64.3458L93.9792 64.3462L93.9789 64.3466L93.9785 64.3471L93.9782 64.3475L93.9771 64.3491L93.9754 64.3513L93.9742 64.3528L93.9734 64.354C93.4999 64.9883 93.0312 65.6162 92.5774 66.2377C92.2111 66.7872 91.3411 66.1919 91.6158 65.5966ZM38.1341 66.2835C36.0278 63.994 33.5094 61.8419 31.1284 59.873C30.6247 59.4609 29.9837 60.2393 30.3958 60.743C32.4105 63.0324 34.5626 65.4135 36.8978 67.4282C37.6762 68.115 38.9125 67.1077 38.1341 66.2835ZM19.5443 78.8817C20.6864 79.5793 21.8656 80.2996 22.749 81.2566C23.2526 81.8518 22.5658 82.676 21.879 82.4471C20.7905 82.0513 19.7971 81.2991 18.8303 80.5671C18.4549 80.2828 18.0835 80.0016 17.7122 79.7455C17.403 79.5216 17.0888 79.3027 16.7743 79.0835L16.7743 79.0835C15.7381 78.3614 14.6982 77.6367 13.8201 76.7234C13.4538 76.3113 13.9574 75.6703 14.4611 75.8534C15.6146 76.2945 16.6424 76.9869 17.6563 77.6699L17.6563 77.67L17.6564 77.67L17.6567 77.6702C18.0111 77.9089 18.3638 78.1465 18.7195 78.3718C18.9889 78.5425 19.2654 78.7113 19.5441 78.8816L19.5443 78.8817ZM17.8953 98.5191C14.7358 98.3359 11.5306 98.2902 8.37116 98.3817C7.50116 98.3817 7.54695 99.618 8.37116 99.7096C11.5306 100.03 14.7358 100.213 17.8953 100.259C19.04 100.259 19.04 98.5649 17.8953 98.5191ZM108.191 124.298L108.228 123.959C108.353 122.797 108.474 121.667 108.558 120.498C108.604 120.635 108.649 120.773 108.741 120.91C108.683 121.274 108.629 121.638 108.576 122L108.576 122L108.576 122L108.576 122L108.576 122L108.576 122L108.576 122.001L108.576 122.001L108.576 122.001L108.576 122.001L108.576 122.001L108.576 122.001C108.461 122.779 108.348 123.549 108.191 124.298ZM28.0605 189.182L26.87 185.931H28.1063L28.6099 187.625L29.251 185.931H30.2583L28.1978 190.784H26.9615C27.1447 190.601 27.3278 190.418 27.4652 190.189L27.8773 189.502L28.0605 189.182ZM33.2346 187.213L34.6541 187.167V187.121C34.6541 186.938 34.6083 186.801 34.4709 186.709L34.4708 186.709C34.3335 186.617 34.1962 186.526 34.0131 186.526C33.8299 186.526 33.6467 186.572 33.5094 186.709C33.372 186.846 33.2804 187.029 33.2346 187.213ZM35.3867 187.991L35.2952 188.998C35.0662 189.09 34.8373 189.182 34.6541 189.227C34.6207 189.234 34.5883 189.241 34.5565 189.247C34.3707 189.286 34.2086 189.319 34.0131 189.319C33.4636 189.319 33.0515 189.182 32.6852 188.861C32.3647 188.541 32.1815 188.128 32.1815 187.625C32.1815 187.121 32.3646 186.663 32.731 186.297C33.0973 185.931 33.5552 185.747 34.0588 185.747C34.5167 185.747 34.883 185.885 35.1578 186.159C35.4325 186.434 35.5699 186.755 35.5699 187.167V187.487L35.4783 187.625L33.2346 187.671C33.2346 187.899 33.3262 188.083 33.5094 188.22C33.6925 188.357 33.8757 188.403 34.1504 188.403C34.3336 188.403 34.5167 188.357 34.7457 188.266C34.9288 188.266 35.1578 188.128 35.3867 187.991ZM40.0114 186.709C39.9885 186.686 39.9542 186.675 39.9199 186.663C39.8855 186.652 39.8512 186.64 39.8283 186.617C39.8054 186.617 39.771 186.606 39.7367 186.594C39.7024 186.583 39.668 186.572 39.6451 186.572C39.4162 186.572 39.233 186.663 39.0956 186.846C38.9583 187.029 38.8667 187.258 38.8667 187.533C38.8667 187.808 38.9125 187.991 39.0499 188.174C39.1872 188.357 39.3246 188.449 39.5078 188.449C39.5993 188.449 39.6451 188.449 39.7367 188.403L39.7369 188.403C39.8284 188.357 39.9199 188.312 39.9656 188.266V186.709H40.0114ZM41.1562 183.824V189.136L40.1488 189.273L40.103 188.998C39.9921 189.072 39.8512 189.117 39.7288 189.155C39.6996 189.164 39.6715 189.173 39.6451 189.182C39.5078 189.227 39.3246 189.227 39.1872 189.227C38.7293 189.227 38.363 189.09 38.1341 188.769C37.8593 188.449 37.7678 188.037 37.7678 187.533C37.7678 186.984 37.9051 186.526 38.2257 186.205C38.5462 185.885 38.9125 185.702 39.4162 185.702C39.5535 185.702 39.6451 185.702 39.7367 185.747C39.8283 185.747 39.9656 185.793 40.0572 185.839V183.916L41.1562 183.824ZM44.6361 187.213L46.0556 187.167V187.121C46.0556 186.938 46.0098 186.801 45.8724 186.709C45.7351 186.617 45.5977 186.526 45.4146 186.526C45.2314 186.526 45.0482 186.572 44.9109 186.709C44.7735 186.846 44.6819 187.029 44.6361 187.213ZM46.7882 187.991L46.6509 188.998C46.4219 189.09 46.193 189.182 46.0098 189.227C45.9764 189.234 45.944 189.241 45.9122 189.247C45.7264 189.286 45.5643 189.319 45.3688 189.319C44.8193 189.319 44.4072 189.182 44.0409 188.861C43.7204 188.541 43.5372 188.128 43.5372 187.625C43.5372 187.121 43.7203 186.663 44.0867 186.297C44.453 185.931 44.9109 185.747 45.4146 185.747C45.8724 185.747 46.2388 185.885 46.5135 186.159C46.7882 186.434 46.9256 186.755 46.9256 187.167V187.487L46.834 187.625L44.5903 187.671C44.5903 187.899 44.6819 188.083 44.8651 188.22C45.0482 188.357 45.2314 188.403 45.5061 188.403C45.6893 188.403 45.8724 188.357 46.1014 188.266C46.3303 188.266 46.5593 188.128 46.7882 187.991ZM50.4514 189.182H49.3066V185.931H50.3598V186.48C50.5429 186.251 50.7261 186.114 50.9092 186.022C51.0924 185.931 51.3214 185.885 51.5503 185.885C51.9166 185.885 52.1456 185.976 52.3287 186.159C52.5119 186.343 52.6034 186.663 52.6034 187.029V189.227H51.4587V187.35C51.4587 187.167 51.4129 187.029 51.3671 186.984C51.2756 186.892 51.184 186.846 51.0466 186.846C50.8635 186.846 50.6803 186.892 50.5887 187.029C50.4971 187.167 50.4514 187.35 50.4514 187.625V189.182ZM56.2208 189.182H55.1676V185.931H56.2208V186.526C56.3582 186.297 56.4955 186.114 56.6787 186.022C56.8618 185.931 57.0908 185.885 57.3197 185.885H57.4113V187.121H57.2739H57.1366C56.7703 187.121 56.5413 187.167 56.4039 187.258C56.2666 187.35 56.2208 187.533 56.2208 187.854V189.182ZM61.8986 186.709C61.8758 186.686 61.8414 186.675 61.8071 186.663C61.7727 186.652 61.7384 186.64 61.7155 186.617C61.6926 186.617 61.6582 186.606 61.6239 186.594C61.5896 186.583 61.5552 186.572 61.5323 186.572C61.3034 186.572 61.1202 186.663 60.9829 186.846C60.8455 187.029 60.7539 187.258 60.7539 187.533C60.7539 187.808 60.7997 187.991 60.9371 188.174C61.0744 188.357 61.2118 188.449 61.395 188.449C61.4865 188.449 61.5323 188.449 61.6239 188.403C61.7155 188.357 61.8071 188.312 61.8529 188.22V186.709H61.8986ZM62.9976 185.885V187.945V188.586C62.9976 188.684 63.0107 188.769 63.0229 188.848C63.0335 188.917 63.0434 188.98 63.0434 189.044L61.9902 189.319L61.8986 188.998C61.7613 189.09 61.6239 189.182 61.4865 189.227C61.3492 189.273 61.2118 189.319 61.0744 189.319C60.6623 189.319 60.296 189.136 60.0213 188.815C59.7466 188.495 59.6092 188.083 59.6092 187.579C59.6092 187.029 59.7923 186.617 60.1129 186.251C60.4334 185.931 60.8455 185.747 61.3492 185.747C61.4407 185.747 61.5781 185.747 61.7155 185.793L62.1276 185.931L62.9976 185.885ZM67.7139 186.709C67.691 186.686 67.6566 186.675 67.6223 186.663C67.5879 186.652 67.5536 186.64 67.5307 186.617C67.5188 186.617 67.5038 186.614 67.4873 186.61L67.4707 186.605L67.4563 186.6L67.4391 186.594C67.4048 186.583 67.3704 186.572 67.3475 186.572C67.1186 186.572 66.9354 186.663 66.7981 186.846C66.6607 187.029 66.5691 187.258 66.5691 187.533C66.5691 187.808 66.6149 187.991 66.7523 188.174C66.8897 188.357 67.027 188.449 67.2102 188.449C67.3018 188.449 67.3476 188.449 67.4391 188.403L67.4394 188.403C67.5309 188.357 67.6223 188.312 67.6681 188.266V186.709H67.7139ZM68.8586 183.824V189.136L67.8512 189.273L67.8054 188.998C67.6945 189.072 67.5537 189.117 67.4312 189.155L67.3964 189.166C67.3796 189.171 67.3633 189.176 67.3475 189.182C67.2102 189.227 67.027 189.227 66.8897 189.227C66.4318 189.227 66.0655 189.09 65.8365 188.769C65.5618 188.449 65.4702 188.037 65.4702 187.533C65.4702 186.984 65.6076 186.526 65.9281 186.205C66.2486 185.885 66.6149 185.702 67.1186 185.702C67.256 185.702 67.3476 185.702 67.4391 185.747C67.5307 185.747 67.6681 185.793 67.7596 185.839V183.916L68.8586 183.824ZM71.3312 184.694C71.3312 184.511 71.377 184.374 71.5144 184.236C71.6517 184.099 71.7891 184.053 71.9723 184.053C72.1554 184.053 72.2928 184.099 72.4301 184.236C72.5675 184.374 72.6133 184.511 72.6133 184.694C72.6133 184.877 72.5675 185.015 72.4301 185.152C72.2928 185.289 72.1554 185.335 71.9723 185.335C71.7891 185.335 71.6517 185.289 71.5144 185.152C71.4228 185.015 71.3312 184.832 71.3312 184.694ZM72.5675 189.182H71.4228V185.931L72.5675 185.793V189.182ZM76.0475 187.533C76.0475 187.808 76.0933 188.037 76.2306 188.22C76.368 188.403 76.5054 188.495 76.6885 188.495C76.8717 188.495 77.0091 188.403 77.1464 188.22C77.2838 188.037 77.3296 187.808 77.3296 187.533C77.3296 187.258 77.2838 187.029 77.1464 186.846C77.0091 186.663 76.8717 186.572 76.6885 186.572C76.5054 186.572 76.368 186.663 76.2306 186.846C76.1391 187.029 76.0475 187.258 76.0475 187.533ZM74.9028 187.533C74.9028 187.029 75.0859 186.572 75.4064 186.251C75.727 185.931 76.1849 185.747 76.6885 185.747C77.1922 185.747 77.6501 185.931 77.9706 186.251C78.2912 186.572 78.4743 187.029 78.4743 187.533C78.4743 188.037 78.2912 188.495 77.9706 188.815C77.6501 189.136 77.1922 189.319 76.6885 189.319C76.1849 189.319 75.727 189.136 75.4064 188.815C75.0859 188.495 74.9028 188.037 74.9028 187.533ZM80.9011 188.632C80.9011 188.449 80.9469 188.312 81.0843 188.174C81.2217 188.037 81.359 187.991 81.4964 187.991C81.6796 187.991 81.8169 188.037 81.9543 188.174C82.0917 188.312 82.1374 188.449 82.1374 188.632C82.1374 188.815 82.0917 188.953 81.9543 189.09C81.8169 189.227 81.6796 189.273 81.4964 189.273C81.3132 189.273 81.1759 189.227 81.0843 189.09C80.9927 188.953 80.9011 188.815 80.9011 188.632ZM87.5864 188.953C87.4948 188.998 87.3918 189.044 87.2887 189.09C87.1857 189.136 87.0827 189.182 86.9911 189.227C86.8079 189.273 86.579 189.319 86.3958 189.319C85.8464 189.319 85.3885 189.136 85.068 188.815C84.7016 188.495 84.5643 188.083 84.5643 187.579C84.5643 187.075 84.7474 186.617 85.1137 186.251C85.48 185.885 85.9837 185.702 86.5332 185.702C86.7621 185.702 86.9453 185.747 87.1285 185.793C87.3116 185.839 87.5406 185.931 87.7237 186.022L87.5864 187.029C87.4032 186.938 87.22 186.846 87.0827 186.801C87.0444 186.791 87.0081 186.781 86.9735 186.772L86.9733 186.772C86.842 186.738 86.7334 186.709 86.6248 186.709C86.35 186.709 86.1669 186.801 85.9837 186.938C85.8006 187.075 85.709 187.304 85.709 187.533C85.709 187.762 85.8006 187.991 85.9379 188.128C86.0753 188.266 86.3043 188.357 86.579 188.357C86.7164 188.357 86.8995 188.312 87.0827 188.266C87.1407 188.237 87.2033 188.208 87.269 188.177C87.4108 188.112 87.5673 188.039 87.7237 187.945L87.5864 188.953ZM91.0205 187.533C91.0205 187.808 91.0663 188.037 91.2037 188.22C91.3411 188.403 91.4784 188.495 91.6616 188.495C91.8447 188.495 91.9821 188.403 92.1195 188.22C92.2568 188.037 92.3026 187.808 92.3026 187.533C92.3026 187.258 92.2568 187.029 92.1195 186.846C91.9821 186.663 91.8447 186.572 91.6616 186.572C91.4784 186.572 91.3411 186.663 91.2037 186.846C91.1121 187.029 91.0205 187.258 91.0205 187.533ZM89.8758 187.533C89.8758 187.029 90.059 186.572 90.3795 186.251C90.7 185.931 91.1579 185.747 91.6616 185.747C92.1653 185.747 92.6231 185.931 92.9437 186.251C93.2642 186.572 93.4474 187.029 93.4474 187.533C93.4474 188.037 93.2642 188.495 92.9437 188.815C92.6231 189.136 92.1653 189.319 91.6616 189.319C91.1579 189.319 90.7 189.136 90.3795 188.815C90.059 188.495 89.8758 188.037 89.8758 187.533ZM99.171 189.182H98.0263V187.304C98.0263 187.121 97.9805 187.029 97.9347 186.938C97.8431 186.846 97.7515 186.801 97.6142 186.801C97.431 186.801 97.2936 186.846 97.1563 186.984C97.0647 187.121 97.0189 187.304 97.0189 187.579V189.182H95.8742V185.931H96.9273V186.48C97.1105 186.251 97.2936 186.114 97.4767 185.976L97.4768 185.976C97.66 185.885 97.8431 185.839 98.0721 185.839C98.301 185.839 98.53 185.885 98.6673 185.976C98.8047 186.068 98.942 186.251 99.0794 186.434C99.2168 186.205 99.3999 186.068 99.5831 185.976C99.7663 185.885 99.9952 185.839 100.224 185.839C100.59 185.839 100.865 185.931 101.048 186.159C101.232 186.343 101.323 186.663 101.323 187.121V189.227H100.178V187.35C100.178 187.167 100.133 187.075 100.087 186.984C99.9952 186.892 99.9036 186.846 99.7663 186.846C99.5831 186.846 99.4457 186.892 99.3084 187.029C99.2168 187.167 99.171 187.35 99.171 187.625V189.182ZM53.8398 163.128C51.0008 162.807 48.2993 162.258 45.7351 161.571C48.3908 162.212 51.0924 162.715 53.8398 163.036C53.868 163.036 53.8614 163.053 53.8521 163.078C53.8464 163.093 53.8398 163.11 53.8398 163.128ZM25.5879 149.62C24.4431 148.383 23.39 147.147 22.4284 145.819C23.4816 147.101 24.5805 148.338 25.8168 149.574C25.7632 149.574 25.7095 149.59 25.6651 149.603C25.6336 149.612 25.6068 149.62 25.5879 149.62ZM114.052 115.919L114.19 113.721C114.19 113.309 113.869 113.034 113.457 112.943C112.908 112.027 111.671 111.294 110.252 111.248C108.787 111.203 107.276 111.935 106.864 112.988C106.589 113.126 106.36 113.355 106.36 113.721C105.994 124.115 105.307 135.105 98.3926 144.446C90.9289 154.519 78.6575 159.464 63.0892 159.327C47.704 159.19 34.5167 155.023 26.6868 145.041C20.5201 137.169 19.4399 128.579 18.3466 119.886L18.3466 119.886L18.3466 119.885L18.3466 119.885L18.3465 119.885L18.3465 119.885L18.3465 119.885L18.3465 119.885L18.3465 119.885L18.3465 119.885L18.3464 119.884L18.3464 119.884C18.0597 117.604 17.7721 115.317 17.3916 113.034C17.3458 112.805 17.1626 112.622 16.9337 112.485C16.8879 112.393 16.7963 112.347 16.7048 112.302C16.5241 112.226 16.3635 112.158 16.2191 112.098L16.2189 112.098L16.2186 112.098C15.5895 111.833 15.2685 111.698 14.9393 111.587C14.5966 111.472 14.245 111.383 13.5274 111.201C13.3693 111.16 13.1934 111.116 12.9958 111.065C12.2174 110.882 11.6222 111.386 11.5306 111.89C11.3474 113.126 11.2101 114.362 11.1185 115.644C7.36378 115.415 3.83802 118.025 3.97538 120.727C4.15854 123.566 7.6843 125.443 11.3474 124.756C13.8658 144.354 29.022 163.952 57.915 165.234C57.1824 170.957 56.816 177.002 57.1824 182.817C50.9092 182.359 34.3336 181.901 28.2436 182.817C25.2673 183.275 22.1079 184.648 21.8331 187.075C21.5126 189.914 25.0842 191.608 28.3352 192.204C34.1504 193.303 50.314 192.799 56.7245 192.57C56.8618 192.616 56.9992 192.616 57.1824 192.616L60.2044 192.478H61.3492C63.681 192.478 66.9535 192.535 70.6274 192.598C79.795 192.755 91.4619 192.956 97.2478 192.433C100.728 192.112 104.528 191.013 105.124 188.128C106.561 181.499 83.3717 181.975 73.6537 182.175L73.6526 182.175L73.644 182.175L73.6428 182.175L73.6341 182.175L73.6328 182.175L73.624 182.176L73.6226 182.176L73.6137 182.176L73.6124 182.176L73.6036 182.176L73.6023 182.176C72.2025 182.205 71.0865 182.227 70.3696 182.222C70.5986 176.544 70.0491 170.545 69.2707 164.959V164.822C82.1375 163.585 93.1726 159.373 101.094 151.131C101.873 150.307 102.605 149.482 103.246 148.658C103.429 148.521 103.613 148.395 103.796 148.269C103.979 148.143 104.162 148.017 104.345 147.88C104.803 147.559 104.849 147.147 104.666 146.827C109.428 140.279 111.717 132.907 112.908 125.489C116.113 125.352 118.998 123.566 119.227 121.093C119.593 119.078 117.166 116.239 114.052 115.919ZM55.9918 59.0945C55.8087 55.9351 55.4424 52.2261 54.2976 49.2956C54.0229 48.563 52.7408 48.7462 52.7866 49.5704C53.0239 51.9433 53.6376 54.3916 54.2377 56.7851C54.4481 57.6245 54.6569 58.4573 54.8471 59.2777C54.9845 59.8729 56.0376 59.6898 55.9918 59.0945ZM114.281 75.716C111.654 76.2956 108.831 77.9837 106.363 79.4598C105.906 79.733 105.461 79.9989 105.032 80.2491C104.437 80.5696 104.94 81.577 105.582 81.3023C106.405 80.9361 107.218 80.5586 108.03 80.181L108.031 80.1805C108.844 79.8027 109.657 79.4249 110.481 79.0586C110.952 78.838 111.436 78.6363 111.923 78.4338L111.923 78.4337L111.923 78.4337L111.923 78.4337L111.924 78.4334L111.924 78.4333C112.953 78.0054 113.99 77.5737 114.923 76.9523C115.609 76.4486 115.014 75.5328 114.281 75.716ZM110.527 98.1986C112.725 98.107 114.968 98.0612 117.166 98.0612C118.265 98.0154 118.265 99.7554 117.166 99.847C115.472 99.847 113.778 99.8012 112.084 99.7554C111.168 99.7554 110.252 99.7554 109.336 99.7096C109.186 99.7096 108.976 99.6895 108.752 99.6681L108.752 99.6681H108.752H108.752H108.752H108.751L108.751 99.6681C108.498 99.6439 108.227 99.618 108.008 99.618L108.008 99.6181C107.917 99.7096 107.825 99.8012 107.688 99.847L107.55 99.8928C107.321 99.9385 107.093 99.847 106.955 99.618C106.955 99.5722 106.909 99.4807 106.864 99.4349C106.726 99.2059 106.772 98.8854 106.955 98.7022C107.505 98.0496 108.698 98.1185 109.666 98.1743C109.989 98.1929 110.286 98.21 110.527 98.1986ZM17.8495 217.479C18.399 221.875 18.5364 224.119 18.2616 224.21C17.9869 224.302 16.9337 224.348 15.1022 224.348C14.6443 224.348 14.1864 224.348 13.7743 224.302C13.3622 224.256 12.7211 224.164 11.8511 224.027L12.1259 219.265C11.9427 216.747 11.8969 213.999 11.9885 211.069C12.0801 208.092 12.0801 205.299 11.8969 202.598C11.7596 199.896 12.1717 198.065 13.2706 197.012C14.3237 195.958 15.5143 195.455 16.8421 195.455C16.9852 195.445 17.1223 195.436 17.2534 195.426L17.2539 195.426C17.7522 195.392 18.1644 195.363 18.4906 195.363C18.9027 195.363 19.7269 195.455 20.9174 195.638C22.6574 195.913 24.6263 196.737 26.8242 198.019C28.7931 199.347 30.0294 201.407 30.5789 204.155C31.1284 207.497 30.991 210.016 30.2126 211.664C29.4342 213.312 28.2894 214.595 26.6868 215.465C25.0842 216.335 23.4358 216.93 21.65 217.113C19.91 217.388 18.6279 217.479 17.8495 217.479ZM20.8258 199.759C18.6279 199.576 17.3458 200.629 17.0711 202.918C16.7964 205.162 16.8879 207.543 17.3458 210.061C17.8495 212.58 19.6353 213.45 22.749 212.671C25.8626 211.893 27.3737 210.153 27.3279 207.497C27.2821 204.796 26.7326 202.873 25.6795 201.728C24.6721 200.583 23.0237 199.896 20.8258 199.759ZM47.0172 218.899C45.5062 218.807 43.583 218.807 41.3393 218.899C41.1562 220.135 40.6983 221.371 40.0572 222.745C39.4162 224.073 38.3173 224.897 36.8062 225.172C35.2952 225.447 33.8757 225.355 32.5478 224.897C31.2199 224.439 30.4873 223.432 30.3499 221.921C30.2126 220.41 31.0826 217.296 32.9141 212.626C34.7457 207.955 36.6688 204.017 38.6378 200.904C40.6067 197.79 43.6746 196.508 47.8414 197.195C50.1309 197.561 51.7335 199.118 52.6035 201.819C53.4735 204.567 54.3892 208.596 55.3508 213.908C56.2666 219.219 56.5413 222.287 56.1292 223.066C55.7171 223.844 55.0303 224.393 54.0687 224.668C53.1071 224.989 51.7335 225.126 49.9477 225.08C48.1619 225.08 47.2004 223.02 47.0172 218.899ZM41.6599 210.84C41.6141 211.939 42.8504 212.351 45.3688 212.122C48.0246 212.214 48.9403 210.702 48.1161 207.635C48.0703 205.757 47.2919 204.567 45.8725 204.109C44.3156 203.88 42.8962 206.124 41.6599 210.84ZM80.9469 229.842C79.5733 229.934 78.7491 229.705 78.5201 229.155C78.2912 228.606 78.0622 227.187 77.8333 224.851C69.9118 225.08 64.7834 225.172 62.4939 225.08L62.3108 227.919C62.2192 229.247 61.9902 229.934 61.6239 229.98C61.3702 230.008 60.9428 230.001 60.3418 229.992H60.341C59.9661 229.986 59.5238 229.98 59.0139 229.98C57.6861 229.934 56.9992 229.659 56.9076 229.155C56.8619 228.652 56.8619 227.736 56.8619 226.408C56.8619 225.08 56.9992 223.798 57.1366 222.562C57.3198 221.326 58.3729 220.684 60.3418 220.684C61.6697 214.961 62.5397 209.604 62.9976 204.567C63.4555 199.576 64.5544 197.057 66.3402 197.057H72.476C74.8112 197.057 77.0091 197.103 79.1154 197.195C81.2217 197.286 82.458 198.294 82.8701 200.217C83.2364 202.14 83.2822 204.658 83.0075 207.772C82.8679 209.354 82.7165 211.231 82.5412 213.404C82.3716 215.508 82.1796 217.889 81.9543 220.547C82.8243 220.547 83.2822 221.051 83.328 221.967C83.3738 222.928 83.3738 223.844 83.3738 224.668C83.3738 225.538 83.3738 226.546 83.4196 227.69C83.4653 228.835 83.1906 229.522 82.5953 229.659C82.0001 229.797 81.4506 229.842 80.9469 229.842ZM77.1006 209.329C77.1006 209.695 77.1464 208.55 77.238 205.986C77.3296 203.376 75.6354 202.094 72.1554 202.094C71.6563 202.094 71.0929 202.062 70.4381 202.025C70.3119 202.017 70.1823 202.01 70.0491 202.003C69.2249 201.957 68.6297 202.918 68.2176 204.841C68.1024 205.392 67.9729 206.003 67.8301 206.677C67.462 208.414 67.0055 210.569 66.4776 213.175C65.7449 216.792 66.8439 218.441 69.8202 218.12C70.3431 218.106 70.818 218.092 71.2476 218.079C72.21 218.051 72.9451 218.029 73.4833 218.029C75.2233 218.12 76.2307 217.891 76.5054 217.342C76.7801 216.792 76.9633 215.602 77.0091 213.725C77.0181 213.365 77.0271 213.018 77.0357 212.684C77.0711 211.318 77.1006 210.175 77.1006 209.329ZM110.71 225.126C105.032 225.676 100.865 224.622 98.301 221.967C95.7368 219.311 94.4089 215.877 94.3174 211.756C94.2258 207.635 95.2789 203.926 97.431 200.629C99.5831 197.378 102.376 195.455 105.765 194.951C109.199 194.447 112.084 194.539 114.465 195.226C116.846 195.913 118.906 197.378 120.555 199.667C122.249 201.957 123.073 204.979 123.119 208.779C123.165 212.58 122.478 216.106 121.196 219.357C119.959 222.653 116.434 224.577 110.71 225.126ZM106.589 202.918C103.704 203.376 102.147 205.482 101.918 209.237C101.689 212.992 102.514 215.327 104.437 216.289C106.36 217.205 108.191 217.662 109.977 217.662C111.717 217.662 113.183 217.159 114.373 216.151C115.564 215.144 116.342 213.312 116.846 210.565C117.304 207.818 116.479 205.757 114.236 204.338C111.992 202.964 109.428 202.46 106.589 202.918ZM91.57 201.224C91.2953 204.658 91.1579 207.955 91.1579 211.069C91.1579 211.741 91.1884 212.535 91.2244 213.475C91.2326 213.688 91.2411 213.908 91.2495 214.137C91.2579 214.365 91.2664 214.585 91.2746 214.798C91.3106 215.738 91.3411 216.532 91.3411 217.205C91.3411 218.303 91.4327 219.631 91.6158 221.234C91.799 222.791 91.5242 223.707 90.8374 223.89C90.059 223.89 88.8685 223.981 87.3116 224.21C85.7548 224.439 85.7548 223.249 87.2658 220.639C87.4032 219.357 87.449 218.075 87.449 216.838C87.4032 214.961 87.3116 213.496 87.2201 212.488C87.1285 211.481 87.0827 210.199 87.0827 208.688C87.0827 207.131 86.808 205.299 86.3043 203.193C85.2511 199.713 86.0295 197.79 88.7311 197.424C91.7074 196.279 92.669 197.561 91.57 201.224ZM103.796 122.146C103.796 121.688 103.658 121.414 103.2 121.276C103.155 121.276 103.063 121.276 103.017 121.23C94.4032 121.23 85.7891 121.242 77.1808 121.253C68.5839 121.265 59.9927 121.276 51.4129 121.276C50.3598 121.276 49.4898 120.406 49.4898 119.353V119.307C49.4898 118.254 50.3598 117.384 51.4129 117.384C55.6026 117.384 59.8038 117.361 64.005 117.338C68.2061 117.315 72.4073 117.293 76.597 117.293C78.0622 117.293 79.2527 116.102 79.2527 114.637V105.799C79.2527 104.334 78.0622 103.144 76.597 103.144C72.436 103.144 68.275 103.132 64.1084 103.121H64.1079C59.9297 103.109 55.7457 103.098 51.5503 103.098C50.4972 103.098 49.6272 102.228 49.6272 101.175V101.129C49.6272 100.076 50.4972 99.2058 51.5503 99.2058C52.4426 99.2058 53.3349 99.2173 54.2272 99.2287L54.229 99.2287L54.2308 99.2288C55.1231 99.2402 56.0154 99.2516 56.9076 99.2516C59.9755 99.2974 63.0434 99.2974 66.1112 99.2974H101.689C102.102 99.2974 102.559 99.2516 103.017 99.2058C103.109 99.2058 103.292 99.2058 103.384 99.16C103.842 99.0227 103.979 98.7937 103.979 98.3358C98.8047 80.1576 82.1375 67.6113 63.2265 67.6113C39.8283 67.6113 20.8716 86.568 20.8716 109.966C20.8716 133.365 39.8283 152.321 63.2265 152.321C81.9543 152.367 98.4842 140.05 103.796 122.146ZM12.9959 34.3684C11.3017 35.7421 9.97378 36.841 9.01221 37.711C8.37116 35.7421 8.188 33.8647 8.55432 31.9874C8.87484 30.2016 9.56168 28.8737 10.6148 27.9579C11.668 27.0422 12.8127 26.3095 14.049 25.7601C15.2853 25.2106 15.8348 24.2948 15.7432 23.0585C15.6516 21.8222 15.1479 20.8606 14.1864 20.128C11.2101 19.5327 7.95905 20.769 4.47908 23.7911C0.999105 26.7674 -0.466148 30.6595 0.129111 35.33C0.72437 40.0463 2.18963 44.0757 4.52487 47.4641C6.86012 50.8525 9.42431 53.0504 12.2174 54.012C15.0106 55.0193 17.9869 54.5614 21.1005 52.6841C24.2142 50.8067 26.2747 48.5173 27.2821 45.7699C28.2894 43.0226 28.5184 41.3284 27.9231 40.5957C27.3279 39.8631 26.6868 39.2679 26 38.7642C25.3131 38.2605 24.6721 38.1689 24.031 38.4436C23.39 38.7184 22.7947 39.5426 22.1995 40.9163C21.65 42.2899 20.5511 43.572 18.9027 44.8083C17.3 46.0447 16.1095 46.5941 15.3311 46.4568C14.5527 46.3652 13.5911 45.3578 12.4464 43.4805C15.7432 40.5957 17.8495 38.6268 18.7195 37.5279C19.5895 36.4289 19.6353 35.4216 18.8569 34.5516C18.0785 33.6816 17.3458 33.0863 16.6132 32.7658C15.8806 32.4911 14.6443 32.9947 12.9959 34.3684ZM58.785 45.2662C59.1513 45.8615 60.1587 45.9531 61.7613 45.5868C62.3565 45.4952 62.9976 45.2662 63.5013 44.9457C64.1423 44.6252 64.3255 43.801 64.0507 42.4731C63.863 41.5343 63.718 40.7025 63.5866 39.9484C63.5257 39.599 63.4677 39.2663 63.4097 38.9473C63.2867 38.0454 63.0903 37.1067 62.8862 36.1313C62.8624 36.0173 62.8384 35.9029 62.8144 35.7879C62.5855 34.6889 61.9444 34.231 60.8913 34.4142C60.6335 31.6381 60.3929 29.1196 60.1769 26.8588C59.8941 23.8989 59.6535 21.3806 59.4718 19.3038C59.1513 15.6407 58.556 12.7102 57.7318 10.5581C56.8619 8.40598 55.2134 7.49019 52.7408 7.81072C50.2682 8.13124 47.6582 8.54334 44.9567 9.04702C43.2219 9.34105 41.6193 9.63508 40.1488 9.90486C39.3294 10.0552 38.5509 10.198 37.8136 10.3291C35.7989 10.6954 35.0204 13.8549 35.5241 19.7617C36.0278 25.6685 36.1194 32.1248 35.7989 39.0847C33.5094 39.5426 32.4105 40.5042 32.4562 41.9694C32.502 43.4347 32.6394 44.9457 32.9141 46.5025L32.9407 46.6533C33.2008 48.1276 33.378 49.1319 33.5552 49.7078C33.7383 50.2572 34.6083 50.4404 36.1652 50.2115C37.7678 49.9825 38.7751 49.7994 39.233 49.7078C39.6909 49.6162 39.8283 48.7462 39.6451 47.1894L39.2788 43.8926C41.9346 43.4805 47.8872 42.3357 57.0908 40.4126C57.8234 43.0684 58.3729 44.671 58.785 45.2662ZM52.5771 19.0037C52.9431 21.6868 53.1022 22.8529 53.0156 22.4632C53.1745 23.3215 53.3555 24.4225 53.5739 25.7509C53.6701 26.336 53.7735 26.9653 53.8856 27.6374C54.2061 29.8811 54.2519 31.3005 54.0229 31.9874C53.794 32.6742 52.6493 33.1321 50.6345 33.4068C50.2616 33.4854 49.7961 33.5807 49.2309 33.6965C48.4775 33.8508 47.5469 34.0414 46.4219 34.2768C42.9877 35.2384 41.3393 33.5442 41.4767 29.1942C41.5683 24.8443 41.6599 21.5017 41.7514 19.1206C41.843 16.7396 42.3467 15.5033 43.3083 15.4117C43.5597 15.3758 43.7985 15.343 44.0265 15.3117C44.6706 15.2233 45.2278 15.1469 45.7351 15.0454C49.8561 14.3128 52.0998 15.4575 52.5119 18.5254L52.5771 19.0037ZM78.2454 21.5932C78.8406 19.5785 79.3443 17.8385 79.6648 16.3733C82.6869 17.0143 84.839 17.4722 86.3043 17.8385C87.6779 18.1591 88.9142 18.0675 89.9674 17.5638C91.0205 17.0601 91.6616 16.2817 91.8905 15.3201C92.1195 14.3586 92.2111 13.0307 92.2569 11.4281C92.2569 9.82544 91.1579 8.77229 88.9143 8.22282C86.8995 7.49019 85.2969 6.98651 84.1064 6.71177C82.8701 6.43704 81.0843 6.07073 78.7033 5.70441C76.3222 5.29231 74.4907 6.80336 73.1628 10.2375C71.8349 13.6259 70.5986 17.9301 69.4081 23.1043C68.2176 28.2785 67.3934 32.8116 66.9355 36.7037C66.4776 40.5957 67.1644 42.8394 68.996 43.3889C70.8275 43.9383 73.758 44.3962 77.8333 44.8083C81.8627 45.2204 84.3811 44.7626 85.3885 43.4805C86.3501 42.1984 86.7164 40.5957 86.3959 38.6726C86.0753 36.7495 85.2053 35.6505 83.7401 35.3758C82.2748 35.101 79.9396 34.7805 76.6885 34.46C76.7343 33.4526 76.9175 32.1705 77.3296 30.6137C81.5422 31.209 83.8774 31.0258 84.3811 29.9727C84.8848 28.9195 85.2053 27.729 85.4343 26.3553C85.6632 24.9816 85.5258 23.9285 85.1137 23.1959C84.7016 22.4632 82.4122 21.9138 78.2454 21.5932ZM131.635 38.3877C132.188 38.0116 132.646 37.7002 133.009 37.4363C133.33 37.2073 133.513 37.0242 133.696 36.7495C134.017 36.2916 133.421 35.9252 131.864 35.6047C130.582 34.6889 129.209 33.7732 127.743 32.8116C126.736 33.7274 125.912 34.9179 125.225 36.3374C123.76 38.581 121.928 40.321 119.776 41.6031C119.593 41.9236 117.532 40.4584 113.549 37.1158L108.924 33.2695L109.199 31.5753C109.886 30.6595 110.893 29.3316 112.313 27.5916C113.732 25.8974 115.014 24.7985 116.205 24.3406C117.12 23.379 117.258 22.6464 116.617 22.0969C116.457 21.9693 116.305 21.8467 116.16 21.7295C115.68 21.3422 115.274 21.0151 114.922 20.769C114.665 20.589 114.35 20.3656 113.986 20.107C113.701 19.9052 113.386 19.682 113.045 19.4412C112.267 18.8917 111.671 19.3038 111.214 20.6775C111.068 20.8536 110.919 21.0368 110.763 21.2271C110.232 21.8774 109.633 22.61 108.924 23.4248C108.719 23.684 108.501 23.9586 108.271 24.2484C107.525 25.1871 106.653 26.2863 105.673 27.5458C104.391 29.24 103.429 30.6137 102.788 31.7584C102.147 32.9032 101.277 34.0937 100.224 35.33C99.171 36.5663 97.7516 38.3521 96.0116 40.6873C94.2716 43.0226 92.669 44.9457 91.2495 46.4568C91.6616 47.0062 92.0737 47.4183 92.4858 47.7388C92.8465 47.9914 93.2357 48.2155 93.6533 48.4559C93.7658 48.5207 93.8803 48.5866 93.9968 48.6546C94.409 49.1583 94.9126 49.5246 95.4621 49.7078C96.0116 49.8909 96.5153 49.2499 96.9731 47.7388C97.7058 46.6857 98.8505 45.312 100.407 43.572C101.964 41.832 103.384 40.6415 104.712 40.0463C112.129 44.0299 115.518 46.7315 114.968 48.1967C114.419 49.662 113.503 51.2646 112.221 53.0504C110.939 54.8362 110.16 55.9809 109.886 56.5304C109.657 57.034 109.382 57.6293 109.107 58.2246C110.298 59.5982 111.626 60.6056 113.045 61.1551C113.686 61.2924 114.281 61.4298 114.922 61.6587C115.518 61.8877 116.159 61.5214 116.754 60.5598C117.578 58.7282 118.219 57.034 118.631 55.4314C119.089 53.8288 119.776 52.3178 120.829 50.8525C122.386 48.4715 123.714 46.5941 124.767 45.1747C125.82 43.7552 126.736 42.6563 127.514 41.9694C127.73 41.7793 127.938 41.5963 128.139 41.4202C128.663 40.9601 129.132 40.5479 129.529 40.1836C130.079 39.7257 130.582 39.2679 130.949 38.8558C131.192 38.6893 131.421 38.5337 131.635 38.3877Z" fill="#090B0F"/>
</svg>
